<mxfile host="app.diagrams.net" modified="2023-04-24T18:02:43.658Z" agent="Mozilla/5.0 (Windows NT 10.0; Win64; x64) AppleWebKit/537.36 (KHTML, like Gecko) Chrome/112.0.0.0 Safari/537.36 Edg/112.0.1722.58" etag="E_UfahTmMWaZa_ptzPiI" version="21.2.1" type="github">
  <diagram name="Page-1" id="WAI_kHuNiL9nzPdvUI3d">
    <mxGraphModel dx="1061" dy="2781" grid="1" gridSize="10" guides="1" tooltips="1" connect="1" arrows="1" fold="1" page="1" pageScale="1" pageWidth="850" pageHeight="1100" math="0" shadow="0">
      <root>
        <mxCell id="0" />
        <mxCell id="1" parent="0" />
        <mxCell id="gxmgwyy8D1BKnNXjqqN9-291" value="" style="verticalLabelPosition=bottom;verticalAlign=top;html=1;shape=mxgraph.basic.rect;fillColor2=none;strokeWidth=7;size=20;indent=5;fillColor=none;strokeColor=#FF66FF;movable=0;resizable=0;rotatable=0;deletable=0;editable=0;locked=1;connectable=0;" parent="1" vertex="1">
          <mxGeometry x="635" y="-670" width="190" height="205" as="geometry" />
        </mxCell>
        <mxCell id="gxmgwyy8D1BKnNXjqqN9-192" value="" style="verticalLabelPosition=bottom;verticalAlign=top;html=1;shape=mxgraph.basic.rect;fillColor2=none;strokeWidth=7;size=20;indent=5;fillColor=none;strokeColor=#4D9900;movable=0;resizable=0;rotatable=0;deletable=0;editable=0;locked=1;connectable=0;" parent="1" vertex="1">
          <mxGeometry x="610" y="-1110" width="240" height="400" as="geometry" />
        </mxCell>
        <mxCell id="gxmgwyy8D1BKnNXjqqN9-191" value="" style="verticalLabelPosition=bottom;verticalAlign=top;html=1;shape=mxgraph.basic.rect;fillColor2=none;strokeWidth=7;size=20;indent=5;fillColor=none;strokeColor=#6c8ebf;movable=0;resizable=0;rotatable=0;deletable=0;editable=0;locked=1;connectable=0;" parent="1" vertex="1">
          <mxGeometry x="900" y="-1110" width="240" height="1020" as="geometry" />
        </mxCell>
        <UserObject label="AMDMIGraphX" link="https://github.com/migraphx-benchmark/AMDMIGraphX" linkTarget="_blank" id="xwbP8etTTOFJ-Utlb-hV-6">
          <mxCell style="rounded=0;html=1;labelBorderColor=none;labelBackgroundColor=#00FFFF;fillColor=#00FFFF;movable=0;resizable=0;rotatable=0;deletable=0;editable=0;locked=1;connectable=0;" parent="1" vertex="1">
            <mxGeometry x="960" y="-960" width="120" height="60" as="geometry" />
          </mxCell>
        </UserObject>
        <UserObject label="actions" link="https://github.com/migraphx-benchmark/actions" linkTarget="_blank" id="xwbP8etTTOFJ-Utlb-hV-7">
          <mxCell style="rounded=0;html=1;labelBorderColor=none;labelBackgroundColor=#00FFFF;fillColor=#00FFFF;movable=0;resizable=0;rotatable=0;deletable=0;editable=0;locked=1;connectable=0;" parent="1" vertex="1">
            <mxGeometry x="960" y="-880" width="120" height="60" as="geometry" />
          </mxCell>
        </UserObject>
        <UserObject label="performance-backup" link="https://github.com/migraphx-benchmark/performance-backup" linkTarget="_blank" id="xwbP8etTTOFJ-Utlb-hV-9">
          <mxCell style="rounded=0;html=1;labelBorderColor=none;labelBackgroundColor=#00FFFF;fillColor=#00FFFF;movable=0;resizable=0;rotatable=0;deletable=0;editable=0;locked=1;connectable=0;" parent="1" vertex="1">
            <mxGeometry x="960" y="-366.25" width="120" height="60" as="geometry" />
          </mxCell>
        </UserObject>
        <UserObject label="guidelines" link="https://github.com/migraphx-benchmark/guidelines" linkTarget="_blank" id="xwbP8etTTOFJ-Utlb-hV-10">
          <mxCell style="rounded=0;html=1;labelBorderColor=none;labelBackgroundColor=#00FFFF;fillColor=#00FFFF;movable=0;resizable=0;rotatable=0;deletable=0;editable=0;locked=1;connectable=0;" parent="1" vertex="1">
            <mxGeometry x="960" y="-276.25" width="120" height="60" as="geometry" />
          </mxCell>
        </UserObject>
        <UserObject label="htec_backup" link="https://github.com/migraphx-benchmark/htec_backup" linkTarget="_blank" id="xwbP8etTTOFJ-Utlb-hV-11">
          <mxCell style="rounded=0;html=1;labelBorderColor=none;labelBackgroundColor=#00FFFF;fillColor=#00FFFF;movable=0;resizable=0;rotatable=0;deletable=0;editable=0;locked=1;connectable=0;" parent="1" vertex="1">
            <mxGeometry x="960" y="-540" width="120" height="60" as="geometry" />
          </mxCell>
        </UserObject>
        <UserObject label="onnxruntime" link="https://github.com/migraphx-benchmark/onnxruntime" linkTarget="_blank" id="xwbP8etTTOFJ-Utlb-hV-12">
          <mxCell style="rounded=0;html=1;labelBorderColor=none;labelBackgroundColor=#00FFFF;fillColor=#00FFFF;movable=0;resizable=0;rotatable=0;deletable=0;editable=0;locked=1;connectable=0;" parent="1" vertex="1">
            <mxGeometry x="960" y="-720" width="120" height="60" as="geometry" />
          </mxCell>
        </UserObject>
        <UserObject label="comparison-results" link="https://github.com/migraphx-benchmark/comparison-results" linkTarget="_blank" id="xwbP8etTTOFJ-Utlb-hV-13">
          <mxCell style="rounded=0;html=1;labelBorderColor=none;labelBackgroundColor=#00FFFF;fillColor=#00FFFF;movable=0;resizable=0;rotatable=0;deletable=0;editable=0;locked=1;connectable=0;" parent="1" vertex="1">
            <mxGeometry x="960" y="-186.25" width="120" height="60" as="geometry" />
          </mxCell>
        </UserObject>
        <UserObject label="rocm-migraphx" link="https://github.com/migraphx-benchmark/rocm-migraphx" linkTarget="_blank" id="xwbP8etTTOFJ-Utlb-hV-14">
          <mxCell style="rounded=0;html=1;labelBorderColor=none;labelBackgroundColor=#00FFFF;fillColor=#00FFFF;movable=0;resizable=0;rotatable=0;deletable=0;editable=0;locked=1;connectable=0;" parent="1" vertex="1">
            <mxGeometry x="960" y="-630" width="120" height="60" as="geometry" />
          </mxCell>
        </UserObject>
        <UserObject label="AMDMIGraphX" link="https://github.com/ROCmSoftwarePlatform/AMDMIGraphX" linkTarget="_blank" id="xwbP8etTTOFJ-Utlb-hV-17">
          <mxCell style="rounded=0;whiteSpace=wrap;html=1;labelBackgroundColor=#2CFF14;labelBorderColor=#2CFF14;fillColor=#2CFF14;movable=0;resizable=0;rotatable=0;deletable=0;editable=0;locked=1;connectable=0;" parent="1" vertex="1">
            <mxGeometry x="670" y="-960" width="120" height="60" as="geometry" />
          </mxCell>
        </UserObject>
        <UserObject label="migraphx-benchmark" link="https://github.com/ROCmSoftwarePlatform/migraphx-benchmark" linkTarget="_blank" id="xwbP8etTTOFJ-Utlb-hV-18">
          <mxCell style="rounded=0;whiteSpace=wrap;html=1;labelBackgroundColor=#2CFF14;labelBorderColor=#2CFF14;fillColor=#2CFF14;movable=0;resizable=0;rotatable=0;deletable=0;editable=0;locked=1;connectable=0;" parent="1" vertex="1">
            <mxGeometry x="670" y="-880" width="120" height="60" as="geometry" />
          </mxCell>
        </UserObject>
        <UserObject label="AMD&lt;br&gt;&lt;font style=&quot;font-size: 21px;&quot;&gt;ROCm Software Platform&lt;br&gt;&lt;br style=&quot;font-size: 21px;&quot;&gt;&lt;/font&gt;" link="https://github.com/ROCmSoftwarePlatform" linkTarget="_blank" id="xwbP8etTTOFJ-Utlb-hV-29">
          <mxCell style="ellipse;whiteSpace=wrap;html=1;fontSize=21;fillColor=#2CFF14;movable=0;resizable=0;rotatable=0;deletable=0;editable=0;locked=1;connectable=0;" parent="1" vertex="1">
            <mxGeometry x="615" y="-1105" width="230" height="120" as="geometry" />
          </mxCell>
        </UserObject>
        <mxCell id="xwbP8etTTOFJ-Utlb-hV-32" value="" style="endArrow=classic;startArrow=classic;html=1;rounded=0;exitX=1;exitY=0.5;exitDx=0;exitDy=0;entryX=0;entryY=0.5;entryDx=0;entryDy=0;strokeWidth=3;movable=0;resizable=0;rotatable=0;deletable=0;editable=0;locked=1;connectable=0;" parent="1" source="xwbP8etTTOFJ-Utlb-hV-18" target="xwbP8etTTOFJ-Utlb-hV-7" edge="1">
          <mxGeometry width="50" height="50" relative="1" as="geometry">
            <mxPoint x="530" y="-735" as="sourcePoint" />
            <mxPoint x="580" y="-725" as="targetPoint" />
          </mxGeometry>
        </mxCell>
        <UserObject label="github action workflows" link="https://github.com/migraphx-benchmark/actions/tree/main/.github/workflows" linkTarget="_blank" id="xwbP8etTTOFJ-Utlb-hV-38">
          <mxCell style="rounded=0;html=1;labelBorderColor=none;labelBackgroundColor=none;fillColor=#FF9933;movable=0;resizable=0;rotatable=0;deletable=0;editable=0;locked=1;connectable=0;" parent="1" vertex="1">
            <mxGeometry x="1275" y="-845" width="130" height="20" as="geometry" />
          </mxCell>
        </UserObject>
        <UserObject label="benchmarks.yml" link="https://github.com/migraphx-benchmark/actions/blob/main/.github/workflows/benchmarks.yml" linkTarget="_blank" id="xwbP8etTTOFJ-Utlb-hV-41">
          <mxCell style="rounded=0;html=1;labelBorderColor=none;labelBackgroundColor=none;fillColor=#FFB366;movable=0;resizable=0;rotatable=0;deletable=0;editable=0;locked=1;connectable=0;" parent="1" vertex="1">
            <mxGeometry x="1540" y="-911.25" width="140" height="20" as="geometry" />
          </mxCell>
        </UserObject>
        <UserObject label="history.yml" link="https://github.com/migraphx-benchmark/actions/blob/main/.github/workflows/history.yml" linkTarget="_blank" id="xwbP8etTTOFJ-Utlb-hV-43">
          <mxCell style="rounded=0;html=1;labelBorderColor=none;labelBackgroundColor=none;fillColor=#FFB366;movable=0;resizable=0;rotatable=0;deletable=0;editable=0;locked=1;connectable=0;" parent="1" vertex="1">
            <mxGeometry x="1540" y="-881.25" width="140" height="20" as="geometry" />
          </mxCell>
        </UserObject>
        <UserObject label="miopen-db.yml" link="https://github.com/migraphx-benchmark/actions/blob/main/.github/workflows/miopen-db.yml" linkTarget="_blank" id="xwbP8etTTOFJ-Utlb-hV-44">
          <mxCell style="rounded=0;html=1;labelBorderColor=none;labelBackgroundColor=none;fillColor=#FFB366;movable=0;resizable=0;rotatable=0;deletable=0;editable=0;locked=1;connectable=0;" parent="1" vertex="1">
            <mxGeometry x="1540" y="-851.25" width="140" height="20" as="geometry" />
          </mxCell>
        </UserObject>
        <UserObject label="perf-test.yml" link="https://github.com/migraphx-benchmark/actions/blob/main/.github/workflows/perf-test.yml" linkTarget="_blank" id="xwbP8etTTOFJ-Utlb-hV-45">
          <mxCell style="rounded=0;html=1;labelBorderColor=none;labelBackgroundColor=none;fillColor=#FFB366;movable=0;resizable=0;rotatable=0;deletable=0;editable=0;locked=1;connectable=0;" parent="1" vertex="1">
            <mxGeometry x="1540" y="-821.25" width="140" height="20" as="geometry" />
          </mxCell>
        </UserObject>
        <UserObject label="rocm-release.yml" link="https://github.com/migraphx-benchmark/actions/blob/main/.github/workflows/rocm-release.yml" linkTarget="_blank" id="xwbP8etTTOFJ-Utlb-hV-46">
          <mxCell style="rounded=0;html=1;labelBorderColor=none;labelBackgroundColor=none;fillColor=#FFB366;movable=0;resizable=0;rotatable=0;deletable=0;editable=0;locked=1;connectable=0;" parent="1" vertex="1">
            <mxGeometry x="1540" y="-791.25" width="140" height="20" as="geometry" />
          </mxCell>
        </UserObject>
        <mxCell id="xwbP8etTTOFJ-Utlb-hV-48" value="" style="endArrow=classic;html=1;rounded=0;entryX=0;entryY=0.5;entryDx=0;entryDy=0;exitX=1;exitY=0.5;exitDx=0;exitDy=0;movable=0;resizable=0;rotatable=0;deletable=0;editable=0;locked=1;connectable=0;" parent="1" source="xwbP8etTTOFJ-Utlb-hV-38" target="xwbP8etTTOFJ-Utlb-hV-46" edge="1">
          <mxGeometry width="50" height="50" relative="1" as="geometry">
            <mxPoint x="1655" y="-792.5" as="sourcePoint" />
            <mxPoint x="1705" y="-707.5" as="targetPoint" />
          </mxGeometry>
        </mxCell>
        <mxCell id="xwbP8etTTOFJ-Utlb-hV-49" value="" style="endArrow=classic;html=1;rounded=0;entryX=0;entryY=0.5;entryDx=0;entryDy=0;exitX=1;exitY=0.5;exitDx=0;exitDy=0;movable=0;resizable=0;rotatable=0;deletable=0;editable=0;locked=1;connectable=0;" parent="1" source="xwbP8etTTOFJ-Utlb-hV-38" target="xwbP8etTTOFJ-Utlb-hV-41" edge="1">
          <mxGeometry width="50" height="50" relative="1" as="geometry">
            <mxPoint x="1655" y="-792.5" as="sourcePoint" />
            <mxPoint x="1705" y="-832.5" as="targetPoint" />
          </mxGeometry>
        </mxCell>
        <mxCell id="xwbP8etTTOFJ-Utlb-hV-50" value="" style="endArrow=classic;html=1;rounded=0;entryX=0;entryY=0.5;entryDx=0;entryDy=0;exitX=1;exitY=0.5;exitDx=0;exitDy=0;movable=0;resizable=0;rotatable=0;deletable=0;editable=0;locked=1;connectable=0;" parent="1" source="xwbP8etTTOFJ-Utlb-hV-38" target="xwbP8etTTOFJ-Utlb-hV-44" edge="1">
          <mxGeometry width="50" height="50" relative="1" as="geometry">
            <mxPoint x="1655" y="-792.5" as="sourcePoint" />
            <mxPoint x="1695" y="-765" as="targetPoint" />
          </mxGeometry>
        </mxCell>
        <mxCell id="xwbP8etTTOFJ-Utlb-hV-51" value="" style="endArrow=classic;html=1;rounded=0;entryX=0;entryY=0.5;entryDx=0;entryDy=0;exitX=1;exitY=0.5;exitDx=0;exitDy=0;movable=0;resizable=0;rotatable=0;deletable=0;editable=0;locked=1;connectable=0;" parent="1" source="xwbP8etTTOFJ-Utlb-hV-38" target="xwbP8etTTOFJ-Utlb-hV-45" edge="1">
          <mxGeometry width="50" height="50" relative="1" as="geometry">
            <mxPoint x="1655" y="-792.5" as="sourcePoint" />
            <mxPoint x="1690" y="-757.5" as="targetPoint" />
            <Array as="points" />
          </mxGeometry>
        </mxCell>
        <mxCell id="xwbP8etTTOFJ-Utlb-hV-52" value="" style="endArrow=classic;html=1;rounded=0;entryX=0;entryY=0.5;entryDx=0;entryDy=0;exitX=1;exitY=0.5;exitDx=0;exitDy=0;movable=0;resizable=0;rotatable=0;deletable=0;editable=0;locked=1;connectable=0;" parent="1" source="xwbP8etTTOFJ-Utlb-hV-38" target="xwbP8etTTOFJ-Utlb-hV-43" edge="1">
          <mxGeometry width="50" height="50" relative="1" as="geometry">
            <mxPoint x="1655" y="-792.5" as="sourcePoint" />
            <mxPoint x="1695" y="-807.5" as="targetPoint" />
          </mxGeometry>
        </mxCell>
        <mxCell id="xwbP8etTTOFJ-Utlb-hV-53" value="" style="endArrow=classic;html=1;rounded=0;entryX=0;entryY=0.5;entryDx=0;entryDy=0;exitX=1;exitY=0.5;exitDx=0;exitDy=0;movable=0;resizable=0;rotatable=0;deletable=0;editable=0;locked=1;connectable=0;" parent="1" source="xwbP8etTTOFJ-Utlb-hV-7" target="xwbP8etTTOFJ-Utlb-hV-38" edge="1">
          <mxGeometry width="50" height="50" relative="1" as="geometry">
            <mxPoint x="1080" y="-756" as="sourcePoint" />
            <mxPoint x="1110" y="-755" as="targetPoint" />
          </mxGeometry>
        </mxCell>
        <UserObject label="github action workflows" link="https://github.com/ROCmSoftwarePlatform/migraphx-benchmark/tree/main/.github/workflows" linkTarget="_blank" id="xwbP8etTTOFJ-Utlb-hV-54">
          <mxCell style="rounded=0;html=1;labelBorderColor=none;labelBackgroundColor=none;fillColor=#FF9933;direction=west;movable=0;resizable=0;rotatable=0;deletable=0;editable=0;locked=1;connectable=0;" parent="1" vertex="1">
            <mxGeometry x="350" y="-857.5" width="130" height="20" as="geometry" />
          </mxCell>
        </UserObject>
        <UserObject label="benchmarks.yml" link="https://github.com/ROCmSoftwarePlatform/migraphx-benchmark/blob/main/.github/workflows/benchmarks.yml" linkTarget="_blank" id="xwbP8etTTOFJ-Utlb-hV-56">
          <mxCell style="rounded=0;html=1;labelBorderColor=none;labelBackgroundColor=none;fillColor=#ffb366;direction=west;movable=0;resizable=0;rotatable=0;deletable=0;editable=0;locked=1;connectable=0;" parent="1" vertex="1">
            <mxGeometry x="95" y="-918.75" width="120" height="20" as="geometry" />
          </mxCell>
        </UserObject>
        <UserObject label="history.yml" link="https://github.com/ROCmSoftwarePlatform/migraphx-benchmark/blob/main/.github/workflows/history.yml" linkTarget="_blank" id="xwbP8etTTOFJ-Utlb-hV-57">
          <mxCell style="rounded=0;html=1;labelBorderColor=none;labelBackgroundColor=none;fillColor=#ffb366;direction=west;movable=0;resizable=0;rotatable=0;deletable=0;editable=0;locked=1;connectable=0;" parent="1" vertex="1">
            <mxGeometry x="95" y="-888.75" width="120" height="20" as="geometry" />
          </mxCell>
        </UserObject>
        <UserObject label="miopen-db.yml" link="https://github.com/ROCmSoftwarePlatform/migraphx-benchmark/blob/main/.github/workflows/miopen-db.yml" linkTarget="_blank" id="xwbP8etTTOFJ-Utlb-hV-58">
          <mxCell style="rounded=0;html=1;labelBorderColor=none;labelBackgroundColor=none;fillColor=#ffb366;direction=west;movable=0;resizable=0;rotatable=0;deletable=0;editable=0;locked=1;connectable=0;" parent="1" vertex="1">
            <mxGeometry x="95" y="-858.75" width="120" height="20" as="geometry" />
          </mxCell>
        </UserObject>
        <UserObject label="perf-test.yml" link="https://github.com/ROCmSoftwarePlatform/migraphx-benchmark/blob/main/.github/workflows/perf-test.yml" linkTarget="_blank" id="xwbP8etTTOFJ-Utlb-hV-59">
          <mxCell style="rounded=0;html=1;labelBorderColor=none;labelBackgroundColor=none;fillColor=#ffb366;direction=west;movable=0;resizable=0;rotatable=0;deletable=0;editable=0;locked=1;connectable=0;" parent="1" vertex="1">
            <mxGeometry x="95" y="-828.75" width="120" height="20" as="geometry" />
          </mxCell>
        </UserObject>
        <UserObject label="rocm-release.yml" link="https://github.com/ROCmSoftwarePlatform/migraphx-benchmark/blob/main/.github/workflows/rocm-release.yml" linkTarget="_blank" id="xwbP8etTTOFJ-Utlb-hV-60">
          <mxCell style="rounded=0;html=1;labelBorderColor=none;labelBackgroundColor=none;fillColor=#ffb366;direction=west;movable=0;resizable=0;rotatable=0;deletable=0;editable=0;locked=1;connectable=0;" parent="1" vertex="1">
            <mxGeometry x="95" y="-798.75" width="120" height="20" as="geometry" />
          </mxCell>
        </UserObject>
        <mxCell id="xwbP8etTTOFJ-Utlb-hV-62" value="" style="endArrow=classic;html=1;rounded=0;entryX=0;entryY=0.5;entryDx=0;entryDy=0;exitX=1;exitY=0.5;exitDx=0;exitDy=0;movable=0;resizable=0;rotatable=0;deletable=0;editable=0;locked=1;connectable=0;" parent="1" source="xwbP8etTTOFJ-Utlb-hV-54" target="xwbP8etTTOFJ-Utlb-hV-60" edge="1">
          <mxGeometry width="50" height="50" relative="1" as="geometry">
            <mxPoint x="125" y="-867.5" as="sourcePoint" />
            <mxPoint x="165" y="-792.5" as="targetPoint" />
          </mxGeometry>
        </mxCell>
        <mxCell id="xwbP8etTTOFJ-Utlb-hV-63" value="" style="endArrow=classic;html=1;rounded=0;exitX=1;exitY=0.5;exitDx=0;exitDy=0;entryX=0;entryY=0.5;entryDx=0;entryDy=0;movable=0;resizable=0;rotatable=0;deletable=0;editable=0;locked=1;connectable=0;" parent="1" source="xwbP8etTTOFJ-Utlb-hV-54" target="xwbP8etTTOFJ-Utlb-hV-56" edge="1">
          <mxGeometry width="50" height="50" relative="1" as="geometry">
            <mxPoint x="125" y="-867.5" as="sourcePoint" />
            <mxPoint x="165" y="-917.5" as="targetPoint" />
          </mxGeometry>
        </mxCell>
        <mxCell id="xwbP8etTTOFJ-Utlb-hV-64" value="" style="endArrow=classic;html=1;rounded=0;entryX=0;entryY=0.5;entryDx=0;entryDy=0;exitX=1;exitY=0.5;exitDx=0;exitDy=0;movable=0;resizable=0;rotatable=0;deletable=0;editable=0;locked=1;connectable=0;" parent="1" source="xwbP8etTTOFJ-Utlb-hV-54" target="xwbP8etTTOFJ-Utlb-hV-58" edge="1">
          <mxGeometry width="50" height="50" relative="1" as="geometry">
            <mxPoint x="335" y="-872.5" as="sourcePoint" />
            <mxPoint x="305" y="-872.5" as="targetPoint" />
          </mxGeometry>
        </mxCell>
        <mxCell id="xwbP8etTTOFJ-Utlb-hV-65" value="" style="endArrow=classic;html=1;rounded=0;entryX=0;entryY=0.5;entryDx=0;entryDy=0;exitX=1;exitY=0.5;exitDx=0;exitDy=0;movable=0;resizable=0;rotatable=0;deletable=0;editable=0;locked=1;connectable=0;" parent="1" source="xwbP8etTTOFJ-Utlb-hV-54" target="xwbP8etTTOFJ-Utlb-hV-59" edge="1">
          <mxGeometry width="50" height="50" relative="1" as="geometry">
            <mxPoint x="335" y="-872.5" as="sourcePoint" />
            <mxPoint x="305" y="-852.5" as="targetPoint" />
            <Array as="points" />
          </mxGeometry>
        </mxCell>
        <mxCell id="xwbP8etTTOFJ-Utlb-hV-66" value="" style="endArrow=classic;html=1;rounded=0;entryX=0;entryY=0.5;entryDx=0;entryDy=0;exitX=1;exitY=0.5;exitDx=0;exitDy=0;movable=0;resizable=0;rotatable=0;deletable=0;editable=0;locked=1;connectable=0;" parent="1" source="xwbP8etTTOFJ-Utlb-hV-54" target="xwbP8etTTOFJ-Utlb-hV-57" edge="1">
          <mxGeometry width="50" height="50" relative="1" as="geometry">
            <mxPoint x="125" y="-867.5" as="sourcePoint" />
            <mxPoint x="155" y="-892.5" as="targetPoint" />
          </mxGeometry>
        </mxCell>
        <mxCell id="xwbP8etTTOFJ-Utlb-hV-67" value="" style="endArrow=classic;html=1;rounded=0;entryX=0;entryY=0.5;entryDx=0;entryDy=0;exitX=0;exitY=0.5;exitDx=0;exitDy=0;movable=0;resizable=0;rotatable=0;deletable=0;editable=0;locked=1;connectable=0;" parent="1" source="xwbP8etTTOFJ-Utlb-hV-18" target="xwbP8etTTOFJ-Utlb-hV-54" edge="1">
          <mxGeometry width="50" height="50" relative="1" as="geometry">
            <mxPoint x="230" y="-795.5" as="sourcePoint" />
            <mxPoint x="200" y="-795" as="targetPoint" />
          </mxGeometry>
        </mxCell>
        <UserObject label="benchmark-utils" link="https://github.com/migraphx-benchmark/benchmark-utils" linkTarget="_blank" id="gxmgwyy8D1BKnNXjqqN9-1">
          <mxCell style="rounded=0;html=1;labelBorderColor=none;labelBackgroundColor=#00FFFF;fillColor=#00FFFF;movable=0;resizable=0;rotatable=0;deletable=0;editable=0;locked=1;connectable=0;" parent="1" vertex="1">
            <mxGeometry x="960" y="-800" width="120" height="60" as="geometry" />
          </mxCell>
        </UserObject>
        <UserObject label="migraphx-benchmark-utils" link="https://github.com/ROCmSoftwarePlatform/migraphx-benchmark-utils" linkTarget="_blank" id="gxmgwyy8D1BKnNXjqqN9-2">
          <mxCell style="rounded=0;whiteSpace=wrap;html=1;labelBackgroundColor=#2CFF14;labelBorderColor=#2CFF14;fillColor=#2CFF14;movable=0;resizable=0;rotatable=0;deletable=0;editable=0;locked=1;connectable=0;" parent="1" vertex="1">
            <mxGeometry x="670" y="-800" width="120" height="60" as="geometry" />
          </mxCell>
        </UserObject>
        <mxCell id="gxmgwyy8D1BKnNXjqqN9-3" value="" style="endArrow=classic;startArrow=classic;html=1;rounded=0;exitX=1;exitY=0.5;exitDx=0;exitDy=0;entryX=0;entryY=0.5;entryDx=0;entryDy=0;strokeWidth=3;movable=0;resizable=0;rotatable=0;deletable=0;editable=0;locked=1;connectable=0;" parent="1" source="gxmgwyy8D1BKnNXjqqN9-2" target="gxmgwyy8D1BKnNXjqqN9-1" edge="1">
          <mxGeometry width="50" height="50" relative="1" as="geometry">
            <mxPoint x="540" y="-555" as="sourcePoint" />
            <mxPoint x="590" y="-545" as="targetPoint" />
          </mxGeometry>
        </mxCell>
        <UserObject label="github action workflows" link="https://github.com/migraphx-benchmark/benchmark-utils/tree/main/.github/workflows" linkTarget="_blank" id="gxmgwyy8D1BKnNXjqqN9-4">
          <mxCell style="rounded=0;html=1;labelBorderColor=none;labelBackgroundColor=none;fillColor=#FF9933;movable=0;resizable=0;rotatable=0;deletable=0;editable=0;locked=1;connectable=0;" parent="1" vertex="1">
            <mxGeometry x="1275" y="-736.25" width="130" height="20" as="geometry" />
          </mxCell>
        </UserObject>
        <UserObject label="rocm-imgBuild-onPush-HTEC.yml" link="https://github.com/migraphx-benchmark/benchmark-utils/blob/main/.github/workflows/rocm-imgBuild-onPush-HTEC.yml" linkTarget="_blank" id="gxmgwyy8D1BKnNXjqqN9-5">
          <mxCell style="rounded=0;html=1;labelBorderColor=none;labelBackgroundColor=none;fillColor=#FFB366;movable=0;resizable=0;rotatable=0;deletable=0;editable=0;locked=1;connectable=0;" parent="1" vertex="1">
            <mxGeometry x="1540" y="-736.25" width="200" height="20" as="geometry" />
          </mxCell>
        </UserObject>
        <mxCell id="gxmgwyy8D1BKnNXjqqN9-11" value="" style="endArrow=classic;html=1;rounded=0;exitX=1;exitY=0.5;exitDx=0;exitDy=0;entryX=0;entryY=0.5;entryDx=0;entryDy=0;movable=0;resizable=0;rotatable=0;deletable=0;editable=0;locked=1;connectable=0;" parent="1" source="gxmgwyy8D1BKnNXjqqN9-4" target="gxmgwyy8D1BKnNXjqqN9-5" edge="1">
          <mxGeometry width="50" height="50" relative="1" as="geometry">
            <mxPoint x="1415" y="-676.25" as="sourcePoint" />
            <mxPoint x="1435" y="-701.25" as="targetPoint" />
          </mxGeometry>
        </mxCell>
        <mxCell id="gxmgwyy8D1BKnNXjqqN9-17" value="" style="endArrow=classic;html=1;rounded=0;entryX=0;entryY=0.5;entryDx=0;entryDy=0;exitX=1;exitY=0.5;exitDx=0;exitDy=0;movable=0;resizable=0;rotatable=0;deletable=0;editable=0;locked=1;connectable=0;" parent="1" source="gxmgwyy8D1BKnNXjqqN9-1" target="gxmgwyy8D1BKnNXjqqN9-4" edge="1">
          <mxGeometry width="50" height="50" relative="1" as="geometry">
            <mxPoint x="1100" y="-385" as="sourcePoint" />
            <mxPoint x="1140" y="-495" as="targetPoint" />
          </mxGeometry>
        </mxCell>
        <mxCell id="gxmgwyy8D1BKnNXjqqN9-29" value="" style="endArrow=classic;html=1;rounded=0;exitX=0;exitY=0.5;exitDx=0;exitDy=0;entryX=0;entryY=0.5;entryDx=0;entryDy=0;movable=0;resizable=0;rotatable=0;deletable=0;editable=0;locked=1;connectable=0;" parent="1" source="gxmgwyy8D1BKnNXjqqN9-2" target="gxmgwyy8D1BKnNXjqqN9-222" edge="1">
          <mxGeometry width="50" height="50" relative="1" as="geometry">
            <mxPoint x="230" y="-793" as="sourcePoint" />
            <mxPoint x="250" y="-660" as="targetPoint" />
          </mxGeometry>
        </mxCell>
        <UserObject label="scripts" link="https://github.com/migraphx-benchmark/benchmark-utils/tree/main/scripts" linkTarget="_blank" id="gxmgwyy8D1BKnNXjqqN9-30">
          <mxCell style="rounded=0;html=1;labelBorderColor=none;labelBackgroundColor=none;fillColor=#FFFF33;movable=0;resizable=0;rotatable=0;deletable=0;editable=0;locked=1;connectable=0;" parent="1" vertex="1">
            <mxGeometry x="1275" y="-125" width="130" height="20" as="geometry" />
          </mxCell>
        </UserObject>
        <UserObject label="accuracy_tests.sh" link="https://github.com/migraphx-benchmark/benchmark-utils/blob/main/scripts/accuracy_tests.sh" linkTarget="_blank" id="gxmgwyy8D1BKnNXjqqN9-31">
          <mxCell style="rounded=0;html=1;labelBorderColor=none;labelBackgroundColor=none;fillColor=#FFFFCC;movable=0;resizable=0;rotatable=0;deletable=0;editable=0;locked=1;connectable=0;" parent="1" vertex="1">
            <mxGeometry x="1540" y="-345" width="180" height="20" as="geometry" />
          </mxCell>
        </UserObject>
        <UserObject label="benchmark_report_detail.py" link="https://github.com/migraphx-benchmark/benchmark-utils/blob/main/scripts/benchmark_report_detail.py" linkTarget="_blank" id="gxmgwyy8D1BKnNXjqqN9-32">
          <mxCell style="rounded=0;html=1;labelBorderColor=none;labelBackgroundColor=none;fillColor=#FFFFCC;movable=0;resizable=0;rotatable=0;deletable=0;editable=0;locked=1;connectable=0;" parent="1" vertex="1">
            <mxGeometry x="1540" y="-315" width="180" height="20" as="geometry" />
          </mxCell>
        </UserObject>
        <UserObject label="build_migraphx.sh" link="https://github.com/migraphx-benchmark/benchmark-utils/blob/main/scripts/build_migraphx.sh" linkTarget="_blank" id="gxmgwyy8D1BKnNXjqqN9-33">
          <mxCell style="rounded=0;html=1;labelBorderColor=none;labelBackgroundColor=none;fillColor=#FFFFCC;movable=0;resizable=0;rotatable=0;deletable=0;editable=0;locked=1;connectable=0;" parent="1" vertex="1">
            <mxGeometry x="1540" y="-285" width="180" height="20" as="geometry" />
          </mxCell>
        </UserObject>
        <UserObject label="build_migraphx_cpu.sh" link="https://github.com/migraphx-benchmark/benchmark-utils/blob/main/scripts/build_migraphx_cpu.sh" linkTarget="_blank" id="gxmgwyy8D1BKnNXjqqN9-34">
          <mxCell style="rounded=0;html=1;labelBorderColor=none;labelBackgroundColor=none;fillColor=#FFFFCC;movable=0;resizable=0;rotatable=0;deletable=0;editable=0;locked=1;connectable=0;" parent="1" vertex="1">
            <mxGeometry x="1540" y="-255" width="180" height="20" as="geometry" />
          </mxCell>
        </UserObject>
        <UserObject label="build_migraphx_docker.sh" link="https://github.com/migraphx-benchmark/benchmark-utils/blob/main/scripts/build_migraphx_docker.sh" linkTarget="_blank" id="gxmgwyy8D1BKnNXjqqN9-35">
          <mxCell style="rounded=0;html=1;labelBorderColor=none;labelBackgroundColor=none;fillColor=#FFFFCC;movable=0;resizable=0;rotatable=0;deletable=0;editable=0;locked=1;connectable=0;" parent="1" vertex="1">
            <mxGeometry x="1540" y="-225" width="180" height="20" as="geometry" />
          </mxCell>
        </UserObject>
        <UserObject label="build_migraphx_docker_latest.sh" link="https://github.com/migraphx-benchmark/benchmark-utils/blob/main/scripts/build_migraphx_docker_latest.sh" linkTarget="_blank" id="gxmgwyy8D1BKnNXjqqN9-36">
          <mxCell style="rounded=0;html=1;labelBorderColor=none;labelBackgroundColor=none;fillColor=#FFFFCC;movable=0;resizable=0;rotatable=0;deletable=0;editable=0;locked=1;connectable=0;" parent="1" vertex="1">
            <mxGeometry x="1540" y="-195" width="180" height="20" as="geometry" />
          </mxCell>
        </UserObject>
        <mxCell id="gxmgwyy8D1BKnNXjqqN9-37" value="" style="endArrow=classic;html=1;rounded=0;entryX=0;entryY=0.25;entryDx=0;entryDy=0;exitX=1;exitY=0.5;exitDx=0;exitDy=0;movable=0;resizable=0;rotatable=0;deletable=0;editable=0;locked=1;connectable=0;" parent="1" source="gxmgwyy8D1BKnNXjqqN9-30" target="gxmgwyy8D1BKnNXjqqN9-31" edge="1">
          <mxGeometry width="50" height="50" relative="1" as="geometry">
            <mxPoint x="1385" y="230" as="sourcePoint" />
            <mxPoint x="1435" y="180" as="targetPoint" />
          </mxGeometry>
        </mxCell>
        <mxCell id="gxmgwyy8D1BKnNXjqqN9-38" value="" style="endArrow=classic;html=1;rounded=0;entryX=0;entryY=0.5;entryDx=0;entryDy=0;exitX=1;exitY=0.5;exitDx=0;exitDy=0;movable=0;resizable=0;rotatable=0;deletable=0;editable=0;locked=1;connectable=0;" parent="1" source="gxmgwyy8D1BKnNXjqqN9-30" target="gxmgwyy8D1BKnNXjqqN9-36" edge="1">
          <mxGeometry width="50" height="50" relative="1" as="geometry">
            <mxPoint x="1385" y="255" as="sourcePoint" />
            <mxPoint x="1425" y="330" as="targetPoint" />
          </mxGeometry>
        </mxCell>
        <mxCell id="gxmgwyy8D1BKnNXjqqN9-39" value="" style="endArrow=classic;html=1;rounded=0;entryX=0;entryY=0.5;entryDx=0;entryDy=0;exitX=1;exitY=0.5;exitDx=0;exitDy=0;movable=0;resizable=0;rotatable=0;deletable=0;editable=0;locked=1;connectable=0;" parent="1" source="gxmgwyy8D1BKnNXjqqN9-30" target="gxmgwyy8D1BKnNXjqqN9-32" edge="1">
          <mxGeometry width="50" height="50" relative="1" as="geometry">
            <mxPoint x="1385" y="255" as="sourcePoint" />
            <mxPoint x="1425" y="205" as="targetPoint" />
          </mxGeometry>
        </mxCell>
        <mxCell id="gxmgwyy8D1BKnNXjqqN9-40" value="" style="endArrow=classic;html=1;rounded=0;entryX=0;entryY=0.5;entryDx=0;entryDy=0;exitX=1;exitY=0.5;exitDx=0;exitDy=0;movable=0;resizable=0;rotatable=0;deletable=0;editable=0;locked=1;connectable=0;" parent="1" source="gxmgwyy8D1BKnNXjqqN9-30" target="gxmgwyy8D1BKnNXjqqN9-34" edge="1">
          <mxGeometry width="50" height="50" relative="1" as="geometry">
            <mxPoint x="1385" y="255" as="sourcePoint" />
            <mxPoint x="1415" y="272.5" as="targetPoint" />
          </mxGeometry>
        </mxCell>
        <mxCell id="gxmgwyy8D1BKnNXjqqN9-41" value="" style="endArrow=classic;html=1;rounded=0;entryX=0;entryY=0.5;entryDx=0;entryDy=0;exitX=1;exitY=0.5;exitDx=0;exitDy=0;movable=0;resizable=0;rotatable=0;deletable=0;editable=0;locked=1;connectable=0;" parent="1" source="gxmgwyy8D1BKnNXjqqN9-30" target="gxmgwyy8D1BKnNXjqqN9-35" edge="1">
          <mxGeometry width="50" height="50" relative="1" as="geometry">
            <mxPoint x="1385" y="255" as="sourcePoint" />
            <mxPoint x="1410" y="280" as="targetPoint" />
            <Array as="points" />
          </mxGeometry>
        </mxCell>
        <mxCell id="gxmgwyy8D1BKnNXjqqN9-42" value="" style="endArrow=classic;html=1;rounded=0;entryX=0;entryY=0.5;entryDx=0;entryDy=0;exitX=1;exitY=0.5;exitDx=0;exitDy=0;movable=0;resizable=0;rotatable=0;deletable=0;editable=0;locked=1;connectable=0;" parent="1" source="gxmgwyy8D1BKnNXjqqN9-30" target="gxmgwyy8D1BKnNXjqqN9-33" edge="1">
          <mxGeometry width="50" height="50" relative="1" as="geometry">
            <mxPoint x="1365" y="255" as="sourcePoint" />
            <mxPoint x="1415" y="230" as="targetPoint" />
          </mxGeometry>
        </mxCell>
        <mxCell id="gxmgwyy8D1BKnNXjqqN9-43" value="" style="endArrow=classic;html=1;rounded=0;exitX=1;exitY=0.5;exitDx=0;exitDy=0;entryX=0;entryY=0.5;entryDx=0;entryDy=0;movable=0;resizable=0;rotatable=0;deletable=0;editable=0;locked=1;connectable=0;" parent="1" source="gxmgwyy8D1BKnNXjqqN9-1" target="gxmgwyy8D1BKnNXjqqN9-30" edge="1">
          <mxGeometry width="50" height="50" relative="1" as="geometry">
            <mxPoint x="1100" y="-385" as="sourcePoint" />
            <mxPoint x="980" y="-250" as="targetPoint" />
          </mxGeometry>
        </mxCell>
        <UserObject label="dockerfiles" link="https://github.com/migraphx-benchmark/benchmark-utils/tree/main/dockerfiles" linkTarget="_blank" id="gxmgwyy8D1BKnNXjqqN9-44">
          <mxCell style="rounded=0;html=1;labelBorderColor=none;labelBackgroundColor=none;fillColor=#007FFF;movable=0;resizable=0;rotatable=0;deletable=0;editable=0;locked=1;connectable=0;" parent="1" vertex="1">
            <mxGeometry x="1275" y="-635" width="130" height="20" as="geometry" />
          </mxCell>
        </UserObject>
        <UserObject label="patch" link="https://github.com/migraphx-benchmark/benchmark-utils/tree/main/dockerfiles/patch" linkTarget="_blank" id="gxmgwyy8D1BKnNXjqqN9-45">
          <mxCell style="rounded=0;html=1;labelBorderColor=none;labelBackgroundColor=none;fillColor=#99CCFF;movable=0;resizable=0;rotatable=0;deletable=0;editable=0;locked=1;connectable=0;" parent="1" vertex="1">
            <mxGeometry x="1540" y="-686.25" width="120" height="20" as="geometry" />
          </mxCell>
        </UserObject>
        <UserObject label="Daily.Dockerfile" link="https://github.com/migraphx-benchmark/benchmark-utils/blob/main/dockerfiles/Daily.Dockerfile" linkTarget="_blank" id="gxmgwyy8D1BKnNXjqqN9-46">
          <mxCell style="rounded=0;html=1;labelBorderColor=none;labelBackgroundColor=none;fillColor=#99CCFF;movable=0;resizable=0;rotatable=0;deletable=0;editable=0;locked=1;connectable=0;" parent="1" vertex="1">
            <mxGeometry x="1540" y="-656.25" width="120" height="20" as="geometry" />
          </mxCell>
        </UserObject>
        <UserObject label="Dockerfile" link="https://github.com/migraphx-benchmark/benchmark-utils/blob/main/dockerfiles/Dockerfile" linkTarget="_blank" id="gxmgwyy8D1BKnNXjqqN9-47">
          <mxCell style="rounded=0;html=1;labelBorderColor=none;labelBackgroundColor=none;fillColor=#99CCFF;movable=0;resizable=0;rotatable=0;deletable=0;editable=0;locked=1;connectable=0;" parent="1" vertex="1">
            <mxGeometry x="1540" y="-626.25" width="120" height="20" as="geometry" />
          </mxCell>
        </UserObject>
        <UserObject label="Ort.Dockerfile" link="https://github.com/migraphx-benchmark/benchmark-utils/blob/main/dockerfiles/Ort.Dockerfile" linkTarget="_blank" id="gxmgwyy8D1BKnNXjqqN9-48">
          <mxCell style="rounded=0;html=1;labelBorderColor=none;labelBackgroundColor=none;fillColor=#99CCFF;movable=0;resizable=0;rotatable=0;deletable=0;editable=0;locked=1;connectable=0;" parent="1" vertex="1">
            <mxGeometry x="1540" y="-596.25" width="120" height="20" as="geometry" />
          </mxCell>
        </UserObject>
        <mxCell id="gxmgwyy8D1BKnNXjqqN9-51" value="" style="endArrow=classic;html=1;rounded=0;entryX=0;entryY=0.25;entryDx=0;entryDy=0;exitX=1;exitY=0.5;exitDx=0;exitDy=0;movable=0;resizable=0;rotatable=0;deletable=0;editable=0;locked=1;connectable=0;" parent="1" source="gxmgwyy8D1BKnNXjqqN9-44" target="gxmgwyy8D1BKnNXjqqN9-45" edge="1">
          <mxGeometry width="50" height="50" relative="1" as="geometry">
            <mxPoint x="1415" y="-565" as="sourcePoint" />
            <mxPoint x="1465" y="-615" as="targetPoint" />
          </mxGeometry>
        </mxCell>
        <mxCell id="gxmgwyy8D1BKnNXjqqN9-53" value="" style="endArrow=classic;html=1;rounded=0;entryX=0;entryY=0.5;entryDx=0;entryDy=0;exitX=1;exitY=0.5;exitDx=0;exitDy=0;movable=0;resizable=0;rotatable=0;deletable=0;editable=0;locked=1;connectable=0;" parent="1" source="gxmgwyy8D1BKnNXjqqN9-44" target="gxmgwyy8D1BKnNXjqqN9-46" edge="1">
          <mxGeometry width="50" height="50" relative="1" as="geometry">
            <mxPoint x="1415" y="-565" as="sourcePoint" />
            <mxPoint x="1455" y="-615" as="targetPoint" />
          </mxGeometry>
        </mxCell>
        <mxCell id="gxmgwyy8D1BKnNXjqqN9-54" value="" style="endArrow=classic;html=1;rounded=0;entryX=0;entryY=0.5;entryDx=0;entryDy=0;exitX=1;exitY=0.5;exitDx=0;exitDy=0;movable=0;resizable=0;rotatable=0;deletable=0;editable=0;locked=1;connectable=0;" parent="1" source="gxmgwyy8D1BKnNXjqqN9-44" target="gxmgwyy8D1BKnNXjqqN9-48" edge="1">
          <mxGeometry width="50" height="50" relative="1" as="geometry">
            <mxPoint x="1415" y="-565" as="sourcePoint" />
            <mxPoint x="1445" y="-547.5" as="targetPoint" />
          </mxGeometry>
        </mxCell>
        <mxCell id="gxmgwyy8D1BKnNXjqqN9-56" value="" style="endArrow=classic;html=1;rounded=0;entryX=0;entryY=0.5;entryDx=0;entryDy=0;exitX=1;exitY=0.5;exitDx=0;exitDy=0;movable=0;resizable=0;rotatable=0;deletable=0;editable=0;locked=1;connectable=0;" parent="1" source="gxmgwyy8D1BKnNXjqqN9-44" target="gxmgwyy8D1BKnNXjqqN9-47" edge="1">
          <mxGeometry width="50" height="50" relative="1" as="geometry">
            <mxPoint x="1395" y="-565" as="sourcePoint" />
            <mxPoint x="1445" y="-590" as="targetPoint" />
          </mxGeometry>
        </mxCell>
        <mxCell id="gxmgwyy8D1BKnNXjqqN9-57" value="" style="endArrow=classic;html=1;rounded=0;exitX=1;exitY=0.5;exitDx=0;exitDy=0;entryX=0;entryY=0.5;entryDx=0;entryDy=0;movable=0;resizable=0;rotatable=0;deletable=0;editable=0;locked=1;connectable=0;" parent="1" source="gxmgwyy8D1BKnNXjqqN9-1" target="gxmgwyy8D1BKnNXjqqN9-44" edge="1">
          <mxGeometry width="50" height="50" relative="1" as="geometry">
            <mxPoint x="1100" y="-385" as="sourcePoint" />
            <mxPoint x="1150" y="-340" as="targetPoint" />
          </mxGeometry>
        </mxCell>
        <mxCell id="gxmgwyy8D1BKnNXjqqN9-61" value="" style="endArrow=classic;html=1;rounded=0;exitX=1;exitY=0.5;exitDx=0;exitDy=0;entryX=0;entryY=0.5;entryDx=0;entryDy=0;movable=0;resizable=0;rotatable=0;deletable=0;editable=0;locked=1;connectable=0;" parent="1" source="gxmgwyy8D1BKnNXjqqN9-1" target="gxmgwyy8D1BKnNXjqqN9-110" edge="1">
          <mxGeometry width="50" height="50" relative="1" as="geometry">
            <mxPoint x="1100" y="-385" as="sourcePoint" />
            <mxPoint x="1129.9999999999998" y="-265" as="targetPoint" />
          </mxGeometry>
        </mxCell>
        <mxCell id="gxmgwyy8D1BKnNXjqqN9-62" value="" style="endArrow=classic;html=1;rounded=0;exitX=1;exitY=0.5;exitDx=0;exitDy=0;entryX=0;entryY=0.5;entryDx=0;entryDy=0;movable=0;resizable=0;rotatable=0;deletable=0;editable=0;locked=1;connectable=0;" parent="1" source="gxmgwyy8D1BKnNXjqqN9-1" target="gxmgwyy8D1BKnNXjqqN9-63" edge="1">
          <mxGeometry width="50" height="50" relative="1" as="geometry">
            <mxPoint x="1100" y="-385" as="sourcePoint" />
            <mxPoint x="1140" y="200" as="targetPoint" />
          </mxGeometry>
        </mxCell>
        <UserObject label="tools" link="https://github.com/migraphx-benchmark/benchmark-utils/tree/main/tools" linkTarget="_blank" id="gxmgwyy8D1BKnNXjqqN9-63">
          <mxCell style="rounded=0;html=1;labelBorderColor=none;labelBackgroundColor=none;fillColor=#E6E6E6;movable=0;resizable=0;rotatable=0;deletable=0;editable=0;locked=1;connectable=0;" parent="1" vertex="1">
            <mxGeometry x="1275" y="220" width="50" height="20" as="geometry" />
          </mxCell>
        </UserObject>
        <UserObject label="build_prereqs.sh" link="https://github.com/migraphx-benchmark/benchmark-utils/blob/main/scripts/build_prereqs.sh" linkTarget="_blank" id="gxmgwyy8D1BKnNXjqqN9-79">
          <mxCell style="rounded=0;html=1;labelBorderColor=none;labelBackgroundColor=none;fillColor=#FFFFCC;movable=0;resizable=0;rotatable=0;deletable=0;editable=0;locked=1;connectable=0;" parent="1" vertex="1">
            <mxGeometry x="1540" y="-165" width="180" height="20" as="geometry" />
          </mxCell>
        </UserObject>
        <UserObject label="clean_after_pr.sh" link="https://github.com/migraphx-benchmark/benchmark-utils/blob/main/scripts/clean_after_pr.sh" linkTarget="_blank" id="gxmgwyy8D1BKnNXjqqN9-80">
          <mxCell style="rounded=0;html=1;labelBorderColor=none;labelBackgroundColor=none;fillColor=#FFFFCC;movable=0;resizable=0;rotatable=0;deletable=0;editable=0;locked=1;connectable=0;" parent="1" vertex="1">
            <mxGeometry x="1540" y="-135" width="180" height="20" as="geometry" />
          </mxCell>
        </UserObject>
        <UserObject label="comment.py" link="https://github.com/migraphx-benchmark/benchmark-utils/blob/main/scripts/comment.py" linkTarget="_blank" id="gxmgwyy8D1BKnNXjqqN9-81">
          <mxCell style="rounded=0;html=1;labelBorderColor=none;labelBackgroundColor=none;fillColor=#FFFFCC;movable=0;resizable=0;rotatable=0;deletable=0;editable=0;locked=1;connectable=0;" parent="1" vertex="1">
            <mxGeometry x="1540" y="-105" width="180" height="20" as="geometry" />
          </mxCell>
        </UserObject>
        <UserObject label="compare.sh" link="https://github.com/migraphx-benchmark/benchmark-utils/blob/main/scripts/compare.py" linkTarget="_blank" id="gxmgwyy8D1BKnNXjqqN9-82">
          <mxCell style="rounded=0;html=1;labelBorderColor=none;labelBackgroundColor=none;fillColor=#FFFFCC;movable=0;resizable=0;rotatable=0;deletable=0;editable=0;locked=1;connectable=0;" parent="1" vertex="1">
            <mxGeometry x="1540" y="-75" width="180" height="20" as="geometry" />
          </mxCell>
        </UserObject>
        <UserObject label="history.py" link="https://github.com/migraphx-benchmark/benchmark-utils/blob/main/scripts/history.py" linkTarget="_blank" id="gxmgwyy8D1BKnNXjqqN9-83">
          <mxCell style="rounded=0;html=1;labelBorderColor=none;labelBackgroundColor=none;fillColor=#FFFFCC;movable=0;resizable=0;rotatable=0;deletable=0;editable=0;locked=1;connectable=0;" parent="1" vertex="1">
            <mxGeometry x="1540" y="-10" width="180" height="20" as="geometry" />
          </mxCell>
        </UserObject>
        <UserObject label="ort_benchmark.sh" link="https://github.com/migraphx-benchmark/benchmark-utils/blob/main/scripts/ort_benchmark.sh" linkTarget="_blank" id="gxmgwyy8D1BKnNXjqqN9-84">
          <mxCell style="rounded=0;html=1;labelBorderColor=none;labelBackgroundColor=none;fillColor=#FFFFCC;movable=0;resizable=0;rotatable=0;deletable=0;editable=0;locked=1;connectable=0;" parent="1" vertex="1">
            <mxGeometry x="1540" y="20" width="180" height="20" as="geometry" />
          </mxCell>
        </UserObject>
        <UserObject label="performance_tests.sh" link="https://github.com/migraphx-benchmark/benchmark-utils/blob/main/scripts/performance_tests.sh" linkTarget="_blank" id="gxmgwyy8D1BKnNXjqqN9-85">
          <mxCell style="rounded=0;html=1;labelBorderColor=none;labelBackgroundColor=none;fillColor=#FFFFCC;movable=0;resizable=0;rotatable=0;deletable=0;editable=0;locked=1;connectable=0;" parent="1" vertex="1">
            <mxGeometry x="1540" y="50" width="180" height="20" as="geometry" />
          </mxCell>
        </UserObject>
        <UserObject label="performance_tests2.sh" link="https://github.com/migraphx-benchmark/benchmark-utils/blob/main/scripts/performance_tests2.sh" linkTarget="_blank" id="gxmgwyy8D1BKnNXjqqN9-86">
          <mxCell style="rounded=0;html=1;labelBorderColor=none;labelBackgroundColor=none;fillColor=#FFFFCC;movable=0;resizable=0;rotatable=0;deletable=0;editable=0;locked=1;connectable=0;" parent="1" vertex="1">
            <mxGeometry x="1540" y="80" width="180" height="20" as="geometry" />
          </mxCell>
        </UserObject>
        <UserObject label="report.py" link="https://github.com/migraphx-benchmark/benchmark-utils/blob/main/scripts/report.py" linkTarget="_blank" id="gxmgwyy8D1BKnNXjqqN9-87">
          <mxCell style="rounded=0;html=1;labelBorderColor=none;labelBackgroundColor=none;fillColor=#FFFFCC;movable=0;resizable=0;rotatable=0;deletable=0;editable=0;locked=1;connectable=0;" parent="1" vertex="1">
            <mxGeometry x="1540" y="110" width="180" height="20" as="geometry" />
          </mxCell>
        </UserObject>
        <UserObject label="duration.sh" link="https://github.com/migraphx-benchmark/benchmark-utils/blob/main/scripts/duration.sh" linkTarget="_blank" id="gxmgwyy8D1BKnNXjqqN9-88">
          <mxCell style="rounded=0;html=1;labelBorderColor=none;labelBackgroundColor=none;fillColor=#FFFFCC;movable=0;resizable=0;rotatable=0;deletable=0;editable=0;locked=1;connectable=0;" parent="1" vertex="1">
            <mxGeometry x="1540" y="-43.75" width="180" height="20" as="geometry" />
          </mxCell>
        </UserObject>
        <UserObject label="threshold.csv" link="https://github.com/migraphx-benchmark/benchmark-utils/blob/main/scripts/threshold.csv" linkTarget="_blank" id="gxmgwyy8D1BKnNXjqqN9-90">
          <mxCell style="rounded=0;html=1;labelBorderColor=none;labelBackgroundColor=none;fillColor=#FFFFCC;movable=0;resizable=0;rotatable=0;deletable=0;editable=0;locked=1;connectable=0;" parent="1" vertex="1">
            <mxGeometry x="1540" y="143.75" width="180" height="20" as="geometry" />
          </mxCell>
        </UserObject>
        <mxCell id="gxmgwyy8D1BKnNXjqqN9-92" value="" style="endArrow=classic;html=1;rounded=0;exitX=1;exitY=0.5;exitDx=0;exitDy=0;entryX=0;entryY=0.5;entryDx=0;entryDy=0;movable=0;resizable=0;rotatable=0;deletable=0;editable=0;locked=1;connectable=0;" parent="1" source="gxmgwyy8D1BKnNXjqqN9-30" target="gxmgwyy8D1BKnNXjqqN9-79" edge="1">
          <mxGeometry width="50" height="50" relative="1" as="geometry">
            <mxPoint x="1355" y="95" as="sourcePoint" />
            <mxPoint x="1415" y="425" as="targetPoint" />
          </mxGeometry>
        </mxCell>
        <mxCell id="gxmgwyy8D1BKnNXjqqN9-93" value="" style="endArrow=classic;html=1;rounded=0;exitX=1;exitY=0.5;exitDx=0;exitDy=0;entryX=0;entryY=0.5;entryDx=0;entryDy=0;movable=0;resizable=0;rotatable=0;deletable=0;editable=0;locked=1;connectable=0;" parent="1" source="gxmgwyy8D1BKnNXjqqN9-30" target="gxmgwyy8D1BKnNXjqqN9-80" edge="1">
          <mxGeometry width="50" height="50" relative="1" as="geometry">
            <mxPoint x="1345" y="310" as="sourcePoint" />
            <mxPoint x="1405" y="640" as="targetPoint" />
          </mxGeometry>
        </mxCell>
        <mxCell id="gxmgwyy8D1BKnNXjqqN9-94" value="" style="endArrow=classic;html=1;rounded=0;exitX=1;exitY=0.5;exitDx=0;exitDy=0;entryX=0;entryY=0.5;entryDx=0;entryDy=0;movable=0;resizable=0;rotatable=0;deletable=0;editable=0;locked=1;connectable=0;" parent="1" source="gxmgwyy8D1BKnNXjqqN9-30" target="gxmgwyy8D1BKnNXjqqN9-81" edge="1">
          <mxGeometry width="50" height="50" relative="1" as="geometry">
            <mxPoint x="1355" y="320" as="sourcePoint" />
            <mxPoint x="1415" y="650" as="targetPoint" />
          </mxGeometry>
        </mxCell>
        <mxCell id="gxmgwyy8D1BKnNXjqqN9-95" value="" style="endArrow=classic;html=1;rounded=0;exitX=1;exitY=0.5;exitDx=0;exitDy=0;entryX=0;entryY=0.5;entryDx=0;entryDy=0;movable=0;resizable=0;rotatable=0;deletable=0;editable=0;locked=1;connectable=0;" parent="1" source="gxmgwyy8D1BKnNXjqqN9-30" target="gxmgwyy8D1BKnNXjqqN9-82" edge="1">
          <mxGeometry width="50" height="50" relative="1" as="geometry">
            <mxPoint x="1365" y="330" as="sourcePoint" />
            <mxPoint x="1425" y="660" as="targetPoint" />
          </mxGeometry>
        </mxCell>
        <mxCell id="gxmgwyy8D1BKnNXjqqN9-96" value="" style="endArrow=classic;html=1;rounded=0;exitX=1;exitY=0.5;exitDx=0;exitDy=0;entryX=0;entryY=0.5;entryDx=0;entryDy=0;movable=0;resizable=0;rotatable=0;deletable=0;editable=0;locked=1;connectable=0;" parent="1" source="gxmgwyy8D1BKnNXjqqN9-30" target="gxmgwyy8D1BKnNXjqqN9-83" edge="1">
          <mxGeometry width="50" height="50" relative="1" as="geometry">
            <mxPoint x="1375" y="340" as="sourcePoint" />
            <mxPoint x="1435" y="670" as="targetPoint" />
          </mxGeometry>
        </mxCell>
        <mxCell id="gxmgwyy8D1BKnNXjqqN9-97" value="" style="endArrow=classic;html=1;rounded=0;exitX=1;exitY=0.5;exitDx=0;exitDy=0;entryX=0;entryY=0.5;entryDx=0;entryDy=0;movable=0;resizable=0;rotatable=0;deletable=0;editable=0;locked=1;connectable=0;" parent="1" source="gxmgwyy8D1BKnNXjqqN9-30" target="gxmgwyy8D1BKnNXjqqN9-84" edge="1">
          <mxGeometry width="50" height="50" relative="1" as="geometry">
            <mxPoint x="1385" y="350" as="sourcePoint" />
            <mxPoint x="1445" y="680" as="targetPoint" />
          </mxGeometry>
        </mxCell>
        <mxCell id="gxmgwyy8D1BKnNXjqqN9-98" value="" style="endArrow=classic;html=1;rounded=0;exitX=1;exitY=0.5;exitDx=0;exitDy=0;entryX=0;entryY=0.5;entryDx=0;entryDy=0;movable=0;resizable=0;rotatable=0;deletable=0;editable=0;locked=1;connectable=0;" parent="1" source="gxmgwyy8D1BKnNXjqqN9-30" target="gxmgwyy8D1BKnNXjqqN9-85" edge="1">
          <mxGeometry width="50" height="50" relative="1" as="geometry">
            <mxPoint x="1395" y="360" as="sourcePoint" />
            <mxPoint x="1455" y="690" as="targetPoint" />
          </mxGeometry>
        </mxCell>
        <mxCell id="gxmgwyy8D1BKnNXjqqN9-99" value="" style="endArrow=classic;html=1;rounded=0;exitX=1;exitY=0.5;exitDx=0;exitDy=0;entryX=0;entryY=0.5;entryDx=0;entryDy=0;movable=0;resizable=0;rotatable=0;deletable=0;editable=0;locked=1;connectable=0;" parent="1" source="gxmgwyy8D1BKnNXjqqN9-30" target="gxmgwyy8D1BKnNXjqqN9-86" edge="1">
          <mxGeometry width="50" height="50" relative="1" as="geometry">
            <mxPoint x="1405" y="370" as="sourcePoint" />
            <mxPoint x="1465" y="700" as="targetPoint" />
          </mxGeometry>
        </mxCell>
        <mxCell id="gxmgwyy8D1BKnNXjqqN9-100" value="" style="endArrow=classic;html=1;rounded=0;exitX=1;exitY=0.5;exitDx=0;exitDy=0;entryX=0;entryY=0.5;entryDx=0;entryDy=0;movable=0;resizable=0;rotatable=0;deletable=0;editable=0;locked=1;connectable=0;" parent="1" source="gxmgwyy8D1BKnNXjqqN9-30" target="gxmgwyy8D1BKnNXjqqN9-87" edge="1">
          <mxGeometry width="50" height="50" relative="1" as="geometry">
            <mxPoint x="1415" y="380" as="sourcePoint" />
            <mxPoint x="1475" y="710" as="targetPoint" />
          </mxGeometry>
        </mxCell>
        <mxCell id="gxmgwyy8D1BKnNXjqqN9-101" value="" style="endArrow=classic;html=1;rounded=0;exitX=1;exitY=0.5;exitDx=0;exitDy=0;entryX=0;entryY=0.5;entryDx=0;entryDy=0;movable=0;resizable=0;rotatable=0;deletable=0;editable=0;locked=1;connectable=0;" parent="1" source="gxmgwyy8D1BKnNXjqqN9-30" target="gxmgwyy8D1BKnNXjqqN9-88" edge="1">
          <mxGeometry width="50" height="50" relative="1" as="geometry">
            <mxPoint x="1425" y="390" as="sourcePoint" />
            <mxPoint x="1405" y="470" as="targetPoint" />
          </mxGeometry>
        </mxCell>
        <mxCell id="gxmgwyy8D1BKnNXjqqN9-103" value="" style="endArrow=classic;html=1;rounded=0;exitX=1;exitY=0.5;exitDx=0;exitDy=0;entryX=0;entryY=0.5;entryDx=0;entryDy=0;movable=0;resizable=0;rotatable=0;deletable=0;editable=0;locked=1;connectable=0;" parent="1" source="gxmgwyy8D1BKnNXjqqN9-30" target="gxmgwyy8D1BKnNXjqqN9-90" edge="1">
          <mxGeometry width="50" height="50" relative="1" as="geometry">
            <mxPoint x="1445" y="410" as="sourcePoint" />
            <mxPoint x="1505" y="740" as="targetPoint" />
          </mxGeometry>
        </mxCell>
        <UserObject label="&lt;font style=&quot;font-size: 21px;&quot;&gt;HTEC&lt;br style=&quot;border-color: var(--border-color);&quot;&gt;&lt;font style=&quot;border-color: var(--border-color);&quot;&gt;migraphx-benchmark&lt;/font&gt;&lt;br style=&quot;font-size: 21px;&quot;&gt;&lt;/font&gt;" link="https://github.com/migraphx-benchmark" linkTarget="_blank" id="gxmgwyy8D1BKnNXjqqN9-104">
          <mxCell style="ellipse;whiteSpace=wrap;html=1;fontSize=21;fillColor=#00FFFF;movable=0;resizable=0;rotatable=0;deletable=0;editable=0;locked=1;connectable=0;" parent="1" vertex="1">
            <mxGeometry x="905" y="-1105" width="230" height="120" as="geometry" />
          </mxCell>
        </UserObject>
        <UserObject label="miopen-dbs" link="https://github.com/migraphx-benchmark/benchmark-utils/tree/main/miopen-dbs" linkTarget="_blank" id="gxmgwyy8D1BKnNXjqqN9-110">
          <mxCell style="rounded=0;html=1;labelBorderColor=none;labelBackgroundColor=none;fillColor=#66CC00;movable=0;resizable=0;rotatable=0;deletable=0;editable=0;locked=1;connectable=0;" parent="1" vertex="1">
            <mxGeometry x="1275" y="-462.5" width="130" height="20" as="geometry" />
          </mxCell>
        </UserObject>
        <UserObject label="rocm5.1.old" link="https://github.com/migraphx-benchmark/benchmark-utils/tree/main/miopen-dbs/rocm5.1.old" linkTarget="_blank" id="gxmgwyy8D1BKnNXjqqN9-111">
          <mxCell style="rounded=0;html=1;labelBorderColor=none;labelBackgroundColor=none;fillColor=#E6FFCC;movable=0;resizable=0;rotatable=0;deletable=0;editable=0;locked=1;connectable=0;" parent="1" vertex="1">
            <mxGeometry x="1540" y="-540" width="120" height="20" as="geometry" />
          </mxCell>
        </UserObject>
        <UserObject label="rocm5.1" link="https://github.com/migraphx-benchmark/benchmark-utils/tree/main/miopen-dbs/rocm5.1" linkTarget="_blank" id="gxmgwyy8D1BKnNXjqqN9-112">
          <mxCell style="rounded=0;html=1;labelBorderColor=none;labelBackgroundColor=none;fillColor=#E6FFCC;movable=0;resizable=0;rotatable=0;deletable=0;editable=0;locked=1;connectable=0;" parent="1" vertex="1">
            <mxGeometry x="1540" y="-510" width="120" height="20" as="geometry" />
          </mxCell>
        </UserObject>
        <UserObject label="rocm5.2" link="https://github.com/migraphx-benchmark/benchmark-utils/tree/main/miopen-dbs/rocm5.2" linkTarget="_blank" id="gxmgwyy8D1BKnNXjqqN9-113">
          <mxCell style="rounded=0;html=1;labelBorderColor=none;labelBackgroundColor=none;fillColor=#E6FFCC;movable=0;resizable=0;rotatable=0;deletable=0;editable=0;locked=1;connectable=0;" parent="1" vertex="1">
            <mxGeometry x="1540" y="-480" width="120" height="20" as="geometry" />
          </mxCell>
        </UserObject>
        <UserObject label="rocm5.3" link="https://github.com/migraphx-benchmark/benchmark-utils/tree/main/miopen-dbs/rocm5.3" linkTarget="_blank" id="gxmgwyy8D1BKnNXjqqN9-114">
          <mxCell style="rounded=0;html=1;labelBorderColor=none;labelBackgroundColor=none;fillColor=#E6FFCC;movable=0;resizable=0;rotatable=0;deletable=0;editable=0;locked=1;connectable=0;" parent="1" vertex="1">
            <mxGeometry x="1540" y="-450" width="120" height="20" as="geometry" />
          </mxCell>
        </UserObject>
        <mxCell id="gxmgwyy8D1BKnNXjqqN9-115" value="" style="endArrow=classic;html=1;rounded=0;entryX=0;entryY=0.25;entryDx=0;entryDy=0;exitX=1;exitY=0.5;exitDx=0;exitDy=0;movable=0;resizable=0;rotatable=0;deletable=0;editable=0;locked=1;connectable=0;" parent="1" source="gxmgwyy8D1BKnNXjqqN9-110" target="gxmgwyy8D1BKnNXjqqN9-111" edge="1">
          <mxGeometry width="50" height="50" relative="1" as="geometry">
            <mxPoint x="1675" y="-222.5" as="sourcePoint" />
            <mxPoint x="1725" y="-272.5" as="targetPoint" />
          </mxGeometry>
        </mxCell>
        <mxCell id="gxmgwyy8D1BKnNXjqqN9-116" value="" style="endArrow=classic;html=1;rounded=0;entryX=0;entryY=0.5;entryDx=0;entryDy=0;exitX=1;exitY=0.5;exitDx=0;exitDy=0;movable=0;resizable=0;rotatable=0;deletable=0;editable=0;locked=1;connectable=0;" parent="1" source="gxmgwyy8D1BKnNXjqqN9-110" target="gxmgwyy8D1BKnNXjqqN9-112" edge="1">
          <mxGeometry width="50" height="50" relative="1" as="geometry">
            <mxPoint x="1675" y="-222.5" as="sourcePoint" />
            <mxPoint x="1715" y="-272.5" as="targetPoint" />
          </mxGeometry>
        </mxCell>
        <mxCell id="gxmgwyy8D1BKnNXjqqN9-117" value="" style="endArrow=classic;html=1;rounded=0;entryX=0;entryY=0.5;entryDx=0;entryDy=0;exitX=1;exitY=0.5;exitDx=0;exitDy=0;movable=0;resizable=0;rotatable=0;deletable=0;editable=0;locked=1;connectable=0;" parent="1" source="gxmgwyy8D1BKnNXjqqN9-110" target="gxmgwyy8D1BKnNXjqqN9-114" edge="1">
          <mxGeometry width="50" height="50" relative="1" as="geometry">
            <mxPoint x="1675" y="-222.5" as="sourcePoint" />
            <mxPoint x="1705" y="-205" as="targetPoint" />
          </mxGeometry>
        </mxCell>
        <mxCell id="gxmgwyy8D1BKnNXjqqN9-118" value="" style="endArrow=classic;html=1;rounded=0;entryX=0;entryY=0.5;entryDx=0;entryDy=0;exitX=1;exitY=0.5;exitDx=0;exitDy=0;movable=0;resizable=0;rotatable=0;deletable=0;editable=0;locked=1;connectable=0;" parent="1" source="gxmgwyy8D1BKnNXjqqN9-110" target="gxmgwyy8D1BKnNXjqqN9-113" edge="1">
          <mxGeometry width="50" height="50" relative="1" as="geometry">
            <mxPoint x="1655" y="-222.5" as="sourcePoint" />
            <mxPoint x="1705" y="-247.5" as="targetPoint" />
          </mxGeometry>
        </mxCell>
        <UserObject label="rocm5.4.2" link="https://github.com/migraphx-benchmark/benchmark-utils/tree/main/miopen-dbs/rocm5.4.2" linkTarget="_blank" id="gxmgwyy8D1BKnNXjqqN9-119">
          <mxCell style="rounded=0;html=1;labelBorderColor=none;labelBackgroundColor=none;fillColor=#E6FFCC;movable=0;resizable=0;rotatable=0;deletable=0;editable=0;locked=1;connectable=0;" parent="1" vertex="1">
            <mxGeometry x="1540" y="-415" width="120" height="20" as="geometry" />
          </mxCell>
        </UserObject>
        <mxCell id="gxmgwyy8D1BKnNXjqqN9-120" value="" style="endArrow=classic;html=1;rounded=0;entryX=0;entryY=0.5;entryDx=0;entryDy=0;exitX=1;exitY=0.5;exitDx=0;exitDy=0;movable=0;resizable=0;rotatable=0;deletable=0;editable=0;locked=1;connectable=0;" parent="1" source="gxmgwyy8D1BKnNXjqqN9-110" target="gxmgwyy8D1BKnNXjqqN9-119" edge="1">
          <mxGeometry width="50" height="50" relative="1" as="geometry">
            <mxPoint x="1665" y="-247.5" as="sourcePoint" />
            <mxPoint x="1785" y="-212.5" as="targetPoint" />
          </mxGeometry>
        </mxCell>
        <mxCell id="gxmgwyy8D1BKnNXjqqN9-121" value="" style="endArrow=classic;html=1;rounded=0;exitX=1;exitY=0.5;exitDx=0;exitDy=0;entryX=0;entryY=0.5;entryDx=0;entryDy=0;movable=0;resizable=0;rotatable=0;deletable=0;editable=0;locked=1;connectable=0;" parent="1" source="gxmgwyy8D1BKnNXjqqN9-110" target="gxmgwyy8D1BKnNXjqqN9-122" edge="1">
          <mxGeometry width="50" height="50" relative="1" as="geometry">
            <mxPoint x="1675" y="-237.5" as="sourcePoint" />
            <mxPoint x="1775" y="-137.5" as="targetPoint" />
          </mxGeometry>
        </mxCell>
        <UserObject label="rocm5.4" link="https://github.com/migraphx-benchmark/benchmark-utils/tree/main/miopen-dbs/rocm5.4" linkTarget="_blank" id="gxmgwyy8D1BKnNXjqqN9-122">
          <mxCell style="rounded=0;html=1;labelBorderColor=none;labelBackgroundColor=none;fillColor=#E6FFCC;movable=0;resizable=0;rotatable=0;deletable=0;editable=0;locked=1;connectable=0;" parent="1" vertex="1">
            <mxGeometry x="1540" y="-385" width="120" height="20" as="geometry" />
          </mxCell>
        </UserObject>
        <UserObject label="memory" link="https://github.com/migraphx-benchmark/benchmark-utils/tree/main/tools/memory" linkTarget="_blank" id="gxmgwyy8D1BKnNXjqqN9-125">
          <mxCell style="rounded=0;html=1;labelBorderColor=none;labelBackgroundColor=none;fillColor=#E6E6E6;movable=0;resizable=0;rotatable=0;deletable=0;editable=0;locked=1;connectable=0;" parent="1" vertex="1">
            <mxGeometry x="1540" y="200" width="50" height="20" as="geometry" />
          </mxCell>
        </UserObject>
        <UserObject label="migx" link="https://github.com/migraphx-benchmark/benchmark-utils/tree/main/tools/migx" linkTarget="_blank" id="gxmgwyy8D1BKnNXjqqN9-126">
          <mxCell style="rounded=0;html=1;labelBorderColor=none;labelBackgroundColor=none;fillColor=#E6E6E6;movable=0;resizable=0;rotatable=0;deletable=0;editable=0;locked=1;connectable=0;" parent="1" vertex="1">
            <mxGeometry x="1540" y="240" width="50" height="20" as="geometry" />
          </mxCell>
        </UserObject>
        <mxCell id="gxmgwyy8D1BKnNXjqqN9-129" value="" style="endArrow=classic;html=1;rounded=0;exitX=1;exitY=0.5;exitDx=0;exitDy=0;entryX=0;entryY=0.5;entryDx=0;entryDy=0;movable=0;resizable=0;rotatable=0;deletable=0;editable=0;locked=1;connectable=0;" parent="1" source="gxmgwyy8D1BKnNXjqqN9-63" target="gxmgwyy8D1BKnNXjqqN9-125" edge="1">
          <mxGeometry width="50" height="50" relative="1" as="geometry">
            <mxPoint x="1145" y="470" as="sourcePoint" />
            <mxPoint x="1195" y="420" as="targetPoint" />
          </mxGeometry>
        </mxCell>
        <mxCell id="gxmgwyy8D1BKnNXjqqN9-130" value="" style="endArrow=classic;html=1;rounded=0;exitX=1;exitY=0.5;exitDx=0;exitDy=0;entryX=0;entryY=0.5;entryDx=0;entryDy=0;movable=0;resizable=0;rotatable=0;deletable=0;editable=0;locked=1;connectable=0;" parent="1" source="gxmgwyy8D1BKnNXjqqN9-63" target="gxmgwyy8D1BKnNXjqqN9-126" edge="1">
          <mxGeometry width="50" height="50" relative="1" as="geometry">
            <mxPoint x="1435" y="440" as="sourcePoint" />
            <mxPoint x="1485" y="390" as="targetPoint" />
          </mxGeometry>
        </mxCell>
        <mxCell id="gxmgwyy8D1BKnNXjqqN9-138" value="" style="verticalLabelPosition=bottom;verticalAlign=top;html=1;shape=mxgraph.basic.tick;fillColor=#00FF00;movable=0;resizable=0;rotatable=0;deletable=0;editable=0;locked=1;connectable=0;" parent="1" vertex="1">
          <mxGeometry x="1015" y="-980" width="15" height="20" as="geometry" />
        </mxCell>
        <mxCell id="gxmgwyy8D1BKnNXjqqN9-145" value="" style="endArrow=classic;html=1;rounded=0;exitX=1;exitY=0.5;exitDx=0;exitDy=0;entryX=0;entryY=0.5;entryDx=0;entryDy=0;strokeWidth=3;movable=0;resizable=0;rotatable=0;deletable=0;editable=0;locked=1;connectable=0;" parent="1" source="gxmgwyy8D1BKnNXjqqN9-143" target="xwbP8etTTOFJ-Utlb-hV-6" edge="1">
          <mxGeometry width="50" height="50" relative="1" as="geometry">
            <mxPoint x="900" y="-810" as="sourcePoint" />
            <mxPoint x="950" y="-860" as="targetPoint" />
          </mxGeometry>
        </mxCell>
        <UserObject label="microsoft" link="https://github.com/microsoft/onnxruntime" linkTarget="_blank" id="gxmgwyy8D1BKnNXjqqN9-155">
          <mxCell style="rounded=0;whiteSpace=wrap;html=1;labelBackgroundColor=none;labelBorderColor=none;fillColor=#FF33FF;movable=0;resizable=0;rotatable=0;deletable=0;editable=0;locked=1;connectable=0;" parent="1" vertex="1">
            <mxGeometry x="670" y="-607.5" width="120" height="60" as="geometry" />
          </mxCell>
        </UserObject>
        <mxCell id="gxmgwyy8D1BKnNXjqqN9-156" value="" style="endArrow=classic;startArrow=classic;html=1;rounded=0;exitX=1;exitY=0.5;exitDx=0;exitDy=0;entryX=0;entryY=0.5;entryDx=0;entryDy=0;strokeWidth=2;movable=0;resizable=0;rotatable=0;deletable=0;editable=0;locked=1;connectable=0;" parent="1" source="gxmgwyy8D1BKnNXjqqN9-155" target="gxmgwyy8D1BKnNXjqqN9-157" edge="1">
          <mxGeometry width="50" height="50" relative="1" as="geometry">
            <mxPoint x="310" y="-265" as="sourcePoint" />
            <mxPoint x="690" y="-245" as="targetPoint" />
          </mxGeometry>
        </mxCell>
        <mxCell id="gxmgwyy8D1BKnNXjqqN9-157" value="FORKED" style="rounded=0;whiteSpace=wrap;html=1;movable=0;resizable=0;rotatable=0;deletable=0;editable=0;locked=1;connectable=0;" parent="1" vertex="1">
          <mxGeometry x="840" y="-700" width="60" height="20" as="geometry" />
        </mxCell>
        <mxCell id="gxmgwyy8D1BKnNXjqqN9-158" value="" style="endArrow=classic;html=1;rounded=0;exitX=1;exitY=0.5;exitDx=0;exitDy=0;entryX=0;entryY=0.5;entryDx=0;entryDy=0;strokeWidth=2;movable=0;resizable=0;rotatable=0;deletable=0;editable=0;locked=1;connectable=0;" parent="1" source="gxmgwyy8D1BKnNXjqqN9-157" target="xwbP8etTTOFJ-Utlb-hV-12" edge="1">
          <mxGeometry width="50" height="50" relative="1" as="geometry">
            <mxPoint x="890" y="-660" as="sourcePoint" />
            <mxPoint x="940" y="-710" as="targetPoint" />
          </mxGeometry>
        </mxCell>
        <mxCell id="gxmgwyy8D1BKnNXjqqN9-159" value="" style="verticalLabelPosition=bottom;verticalAlign=top;html=1;shape=mxgraph.basic.tick;fillColor=#00FF00;movable=0;resizable=0;rotatable=0;deletable=0;editable=0;locked=1;connectable=0;" parent="1" vertex="1">
          <mxGeometry x="1015" y="-740" width="15" height="20" as="geometry" />
        </mxCell>
        <UserObject label="mvermeulen" link="https://github.com/mvermeulen/rocm-migraphx" linkTarget="_blank" id="gxmgwyy8D1BKnNXjqqN9-160">
          <mxCell style="rounded=0;whiteSpace=wrap;html=1;labelBackgroundColor=none;labelBorderColor=none;fillColor=#FF99FF;movable=0;resizable=0;rotatable=0;deletable=0;editable=0;locked=1;connectable=0;" parent="1" vertex="1">
            <mxGeometry x="670" y="-537.5" width="120" height="60" as="geometry" />
          </mxCell>
        </UserObject>
        <mxCell id="gxmgwyy8D1BKnNXjqqN9-161" value="" style="endArrow=classic;startArrow=classic;html=1;rounded=0;exitX=1;exitY=0.5;exitDx=0;exitDy=0;entryX=0;entryY=0.5;entryDx=0;entryDy=0;strokeWidth=2;movable=0;resizable=0;rotatable=0;deletable=0;editable=0;locked=1;connectable=0;" parent="1" source="gxmgwyy8D1BKnNXjqqN9-160" target="gxmgwyy8D1BKnNXjqqN9-162" edge="1">
          <mxGeometry width="50" height="50" relative="1" as="geometry">
            <mxPoint x="310" y="-175" as="sourcePoint" />
            <mxPoint x="690" y="-155" as="targetPoint" />
          </mxGeometry>
        </mxCell>
        <mxCell id="gxmgwyy8D1BKnNXjqqN9-163" value="" style="endArrow=classic;html=1;rounded=0;exitX=1;exitY=0.5;exitDx=0;exitDy=0;entryX=0;entryY=0.5;entryDx=0;entryDy=0;strokeWidth=2;movable=0;resizable=0;rotatable=0;deletable=0;editable=0;locked=1;connectable=0;" parent="1" source="gxmgwyy8D1BKnNXjqqN9-162" target="xwbP8etTTOFJ-Utlb-hV-14" edge="1">
          <mxGeometry width="50" height="50" relative="1" as="geometry">
            <mxPoint x="890" y="-680" as="sourcePoint" />
            <mxPoint x="940" y="-730" as="targetPoint" />
          </mxGeometry>
        </mxCell>
        <mxCell id="gxmgwyy8D1BKnNXjqqN9-164" value="" style="verticalLabelPosition=bottom;verticalAlign=top;html=1;shape=mxgraph.basic.tick;fillColor=#00FF00;movable=0;resizable=0;rotatable=0;deletable=0;editable=0;locked=1;connectable=0;" parent="1" vertex="1">
          <mxGeometry x="1015" y="-650" width="15" height="20" as="geometry" />
        </mxCell>
        <mxCell id="gxmgwyy8D1BKnNXjqqN9-165" value="" style="verticalLabelPosition=bottom;verticalAlign=top;html=1;shape=mxgraph.basic.tick;fillColor=#00FF00;movable=0;resizable=0;rotatable=0;deletable=0;editable=0;locked=1;connectable=0;" parent="1" vertex="1">
          <mxGeometry x="1015" y="-296.25" width="15" height="20" as="geometry" />
        </mxCell>
        <mxCell id="gxmgwyy8D1BKnNXjqqN9-167" value="" style="verticalLabelPosition=bottom;verticalAlign=top;html=1;shape=mxgraph.basic.tick;fillColor=#00FF00;movable=0;resizable=0;rotatable=0;deletable=0;editable=0;locked=1;connectable=0;" parent="1" vertex="1">
          <mxGeometry x="730" y="-980" width="15" height="20" as="geometry" />
        </mxCell>
        <mxCell id="gxmgwyy8D1BKnNXjqqN9-162" value="FORKED" style="rounded=0;whiteSpace=wrap;html=1;movable=0;resizable=0;rotatable=0;deletable=0;editable=0;locked=1;connectable=0;" parent="1" vertex="1">
          <mxGeometry x="840" y="-610" width="60" height="20" as="geometry" />
        </mxCell>
        <mxCell id="gxmgwyy8D1BKnNXjqqN9-143" value="FORKED" style="rounded=0;whiteSpace=wrap;html=1;movable=0;resizable=0;rotatable=0;deletable=0;editable=0;locked=1;connectable=0;" parent="1" vertex="1">
          <mxGeometry x="845" y="-940" width="60" height="20" as="geometry" />
        </mxCell>
        <mxCell id="gxmgwyy8D1BKnNXjqqN9-180" value="" style="verticalLabelPosition=bottom;verticalAlign=top;html=1;shape=mxgraph.basic.x;fillColor=#FF0000;movable=0;resizable=0;rotatable=0;deletable=0;editable=0;locked=1;connectable=0;" parent="1" vertex="1">
          <mxGeometry x="410" y="-867.5" width="10" height="10" as="geometry" />
        </mxCell>
        <mxCell id="gxmgwyy8D1BKnNXjqqN9-181" value="" style="verticalLabelPosition=bottom;verticalAlign=top;html=1;shape=mxgraph.basic.x;fillColor=#FF0000;movable=1;resizable=1;rotatable=1;deletable=1;editable=1;locked=0;connectable=1;" parent="1" vertex="1">
          <mxGeometry x="410" y="-1067.5" width="10" height="10" as="geometry" />
        </mxCell>
        <mxCell id="gxmgwyy8D1BKnNXjqqN9-182" value="" style="verticalLabelPosition=bottom;verticalAlign=top;html=1;shape=mxgraph.basic.x;fillColor=#FF0000;movable=0;resizable=0;rotatable=0;deletable=0;editable=0;locked=1;connectable=0;" parent="1" vertex="1">
          <mxGeometry x="732.5" y="-810" width="10" height="10" as="geometry" />
        </mxCell>
        <mxCell id="gxmgwyy8D1BKnNXjqqN9-183" value="" style="verticalLabelPosition=bottom;verticalAlign=top;html=1;shape=mxgraph.basic.x;fillColor=#FF0000;movable=0;resizable=0;rotatable=0;deletable=0;editable=0;locked=1;connectable=0;" parent="1" vertex="1">
          <mxGeometry x="732.5" y="-890" width="10" height="10" as="geometry" />
        </mxCell>
        <mxCell id="gxmgwyy8D1BKnNXjqqN9-184" value="" style="verticalLabelPosition=bottom;verticalAlign=top;html=1;shape=mxgraph.basic.x;fillColor=#FF0000;movable=0;resizable=0;rotatable=0;deletable=0;editable=0;locked=1;connectable=0;" parent="1" vertex="1">
          <mxGeometry x="1015" y="-196.25" width="10" height="10" as="geometry" />
        </mxCell>
        <mxCell id="gxmgwyy8D1BKnNXjqqN9-185" value="" style="verticalLabelPosition=bottom;verticalAlign=top;html=1;shape=mxgraph.basic.x;fillColor=#FF0000;movable=0;resizable=0;rotatable=0;deletable=0;editable=0;locked=1;connectable=0;" parent="1" vertex="1">
          <mxGeometry x="1015" y="-550" width="10" height="10" as="geometry" />
        </mxCell>
        <mxCell id="gxmgwyy8D1BKnNXjqqN9-186" value="" style="verticalLabelPosition=bottom;verticalAlign=top;html=1;shape=mxgraph.basic.x;fillColor=#FF0000;movable=0;resizable=0;rotatable=0;deletable=0;editable=0;locked=1;connectable=0;" parent="1" vertex="1">
          <mxGeometry x="1015" y="-376.25" width="10" height="10" as="geometry" />
        </mxCell>
        <UserObject label="scripts" link="https://github.com/ROCmSoftwarePlatform/migraphx-benchmark-utils/tree/main/scripts" linkTarget="_blank" id="gxmgwyy8D1BKnNXjqqN9-209">
          <mxCell style="rounded=0;html=1;labelBorderColor=none;labelBackgroundColor=none;fillColor=#FFFF33;movable=0;resizable=0;rotatable=0;deletable=0;editable=0;locked=1;connectable=0;direction=west;" parent="1" vertex="1">
            <mxGeometry x="350" y="-295" width="130" height="20" as="geometry" />
          </mxCell>
        </UserObject>
        <UserObject label="accuracy_tests.sh" link="https://github.com/ROCmSoftwarePlatform/migraphx-benchmark-utils/blob/main/scripts/accuracy_tests.sh" linkTarget="_blank" id="gxmgwyy8D1BKnNXjqqN9-210">
          <mxCell style="rounded=0;html=1;labelBorderColor=none;labelBackgroundColor=none;fillColor=#FFFFCC;direction=west;movable=0;resizable=0;rotatable=0;deletable=0;editable=0;locked=1;connectable=0;" parent="1" vertex="1">
            <mxGeometry x="35" y="-503.75" width="180" height="20" as="geometry" />
          </mxCell>
        </UserObject>
        <UserObject label="benchmark_report_detail.py" link="https://github.com/ROCmSoftwarePlatform/migraphx-benchmark-utils/blob/main/scripts/benchmark_report_detail.py" linkTarget="_blank" id="gxmgwyy8D1BKnNXjqqN9-211">
          <mxCell style="rounded=0;html=1;labelBorderColor=none;labelBackgroundColor=none;fillColor=#FFFFCC;direction=west;movable=0;resizable=0;rotatable=0;deletable=0;editable=0;locked=1;connectable=0;" parent="1" vertex="1">
            <mxGeometry x="35" y="-476.25" width="180" height="20" as="geometry" />
          </mxCell>
        </UserObject>
        <UserObject label="build_migraphx.sh" link="https://github.com/ROCmSoftwarePlatform/migraphx-benchmark-utils/blob/main/scripts/build_migraphx.sh" linkTarget="_blank" id="gxmgwyy8D1BKnNXjqqN9-212">
          <mxCell style="rounded=0;html=1;labelBorderColor=none;labelBackgroundColor=none;fillColor=#FFFFCC;direction=west;movable=0;resizable=0;rotatable=0;deletable=0;editable=0;locked=1;connectable=0;" parent="1" vertex="1">
            <mxGeometry x="35" y="-446.25" width="180" height="20" as="geometry" />
          </mxCell>
        </UserObject>
        <UserObject label="build_migraphx_cpu.sh" link="https://github.com/ROCmSoftwarePlatform/migraphx-benchmark-utils/blob/main/scripts/build_migraphx_cpu.sh" linkTarget="_blank" id="gxmgwyy8D1BKnNXjqqN9-213">
          <mxCell style="rounded=0;html=1;labelBorderColor=none;labelBackgroundColor=none;fillColor=#FFFFCC;direction=west;movable=0;resizable=0;rotatable=0;deletable=0;editable=0;locked=1;connectable=0;" parent="1" vertex="1">
            <mxGeometry x="35" y="-416.25" width="180" height="20" as="geometry" />
          </mxCell>
        </UserObject>
        <UserObject label="build_migraphx_docker.sh" link="https://github.com/ROCmSoftwarePlatform/migraphx-benchmark-utils/blob/main/scripts/build_migraphx_docker.sh" linkTarget="_blank" id="gxmgwyy8D1BKnNXjqqN9-214">
          <mxCell style="rounded=0;html=1;labelBorderColor=none;labelBackgroundColor=none;fillColor=#FFFFCC;direction=west;movable=0;resizable=0;rotatable=0;deletable=0;editable=0;locked=1;connectable=0;" parent="1" vertex="1">
            <mxGeometry x="35" y="-386.25" width="180" height="20" as="geometry" />
          </mxCell>
        </UserObject>
        <UserObject label="build_migraphx_docker_latest.sh" link="https://github.com/ROCmSoftwarePlatform/migraphx-benchmark-utils/blob/main/scripts/build_migraphx_docker_latest.sh" linkTarget="_blank" id="gxmgwyy8D1BKnNXjqqN9-215">
          <mxCell style="rounded=0;html=1;labelBorderColor=none;labelBackgroundColor=none;fillColor=#FFFFCC;direction=west;movable=0;resizable=0;rotatable=0;deletable=0;editable=0;locked=1;connectable=0;" parent="1" vertex="1">
            <mxGeometry x="35" y="-356.25" width="180" height="20" as="geometry" />
          </mxCell>
        </UserObject>
        <mxCell id="gxmgwyy8D1BKnNXjqqN9-216" value="" style="endArrow=classic;html=1;rounded=0;entryX=0;entryY=0.25;entryDx=0;entryDy=0;exitX=1;exitY=0.5;exitDx=0;exitDy=0;movable=0;resizable=0;rotatable=0;deletable=0;editable=0;locked=1;connectable=0;" parent="1" source="gxmgwyy8D1BKnNXjqqN9-209" target="gxmgwyy8D1BKnNXjqqN9-210" edge="1">
          <mxGeometry width="50" height="50" relative="1" as="geometry">
            <mxPoint x="-65" y="162.5" as="sourcePoint" />
            <mxPoint x="-15" y="112.5" as="targetPoint" />
          </mxGeometry>
        </mxCell>
        <mxCell id="gxmgwyy8D1BKnNXjqqN9-217" value="" style="endArrow=classic;html=1;rounded=0;entryX=0;entryY=0.5;entryDx=0;entryDy=0;exitX=1;exitY=0.5;exitDx=0;exitDy=0;movable=0;resizable=0;rotatable=0;deletable=0;editable=0;locked=1;connectable=0;" parent="1" source="gxmgwyy8D1BKnNXjqqN9-209" target="gxmgwyy8D1BKnNXjqqN9-215" edge="1">
          <mxGeometry width="50" height="50" relative="1" as="geometry">
            <mxPoint x="-65" y="162.5" as="sourcePoint" />
            <mxPoint x="-25" y="237.5" as="targetPoint" />
          </mxGeometry>
        </mxCell>
        <mxCell id="gxmgwyy8D1BKnNXjqqN9-218" value="" style="endArrow=classic;html=1;rounded=0;entryX=0;entryY=0.5;entryDx=0;entryDy=0;exitX=1;exitY=0.5;exitDx=0;exitDy=0;movable=0;resizable=0;rotatable=0;deletable=0;editable=0;locked=1;connectable=0;" parent="1" source="gxmgwyy8D1BKnNXjqqN9-209" target="gxmgwyy8D1BKnNXjqqN9-211" edge="1">
          <mxGeometry width="50" height="50" relative="1" as="geometry">
            <mxPoint x="-65" y="162.5" as="sourcePoint" />
            <mxPoint x="-25" y="112.5" as="targetPoint" />
          </mxGeometry>
        </mxCell>
        <mxCell id="gxmgwyy8D1BKnNXjqqN9-219" value="" style="endArrow=classic;html=1;rounded=0;entryX=0;entryY=0.5;entryDx=0;entryDy=0;exitX=1;exitY=0.5;exitDx=0;exitDy=0;movable=0;resizable=0;rotatable=0;deletable=0;editable=0;locked=1;connectable=0;" parent="1" source="gxmgwyy8D1BKnNXjqqN9-209" target="gxmgwyy8D1BKnNXjqqN9-213" edge="1">
          <mxGeometry width="50" height="50" relative="1" as="geometry">
            <mxPoint x="-65" y="162.5" as="sourcePoint" />
            <mxPoint x="-35" y="180" as="targetPoint" />
          </mxGeometry>
        </mxCell>
        <mxCell id="gxmgwyy8D1BKnNXjqqN9-220" value="" style="endArrow=classic;html=1;rounded=0;entryX=0;entryY=0.5;entryDx=0;entryDy=0;exitX=1;exitY=0.5;exitDx=0;exitDy=0;movable=0;resizable=0;rotatable=0;deletable=0;editable=0;locked=1;connectable=0;" parent="1" source="gxmgwyy8D1BKnNXjqqN9-209" target="gxmgwyy8D1BKnNXjqqN9-214" edge="1">
          <mxGeometry width="50" height="50" relative="1" as="geometry">
            <mxPoint x="-65" y="162.5" as="sourcePoint" />
            <mxPoint x="-40" y="187.5" as="targetPoint" />
            <Array as="points" />
          </mxGeometry>
        </mxCell>
        <mxCell id="gxmgwyy8D1BKnNXjqqN9-221" value="" style="endArrow=classic;html=1;rounded=0;entryX=0;entryY=0.5;entryDx=0;entryDy=0;exitX=1;exitY=0.5;exitDx=0;exitDy=0;movable=0;resizable=0;rotatable=0;deletable=0;editable=0;locked=1;connectable=0;" parent="1" source="gxmgwyy8D1BKnNXjqqN9-209" target="gxmgwyy8D1BKnNXjqqN9-212" edge="1">
          <mxGeometry width="50" height="50" relative="1" as="geometry">
            <mxPoint x="-85" y="162.5" as="sourcePoint" />
            <mxPoint x="-35" y="137.5" as="targetPoint" />
          </mxGeometry>
        </mxCell>
        <UserObject label="tools" link="https://github.com/ROCmSoftwarePlatform/migraphx-benchmark-utils/tree/main/tools" linkTarget="_blank" id="gxmgwyy8D1BKnNXjqqN9-231">
          <mxCell style="rounded=0;html=1;labelBorderColor=none;labelBackgroundColor=none;fillColor=#E6E6E6;movable=0;resizable=0;rotatable=0;deletable=0;editable=0;locked=1;connectable=0;direction=west;" parent="1" vertex="1">
            <mxGeometry x="430" y="-27.5" width="50" height="20" as="geometry" />
          </mxCell>
        </UserObject>
        <UserObject label="build_prereqs.sh" link="https://github.com/ROCmSoftwarePlatform/migraphx-benchmark-utils/blob/main/scripts/build_prereqs.sh" linkTarget="_blank" id="gxmgwyy8D1BKnNXjqqN9-244">
          <mxCell style="rounded=0;html=1;labelBorderColor=none;labelBackgroundColor=none;fillColor=#FFFFCC;direction=west;movable=0;resizable=0;rotatable=0;deletable=0;editable=0;locked=1;connectable=0;" parent="1" vertex="1">
            <mxGeometry x="35" y="-326.25" width="180" height="20" as="geometry" />
          </mxCell>
        </UserObject>
        <UserObject label="clean_after_pr.sh" link="https://github.com/ROCmSoftwarePlatform/migraphx-benchmark-utils/blob/main/scripts/clean_after_pr.sh" linkTarget="_blank" id="gxmgwyy8D1BKnNXjqqN9-245">
          <mxCell style="rounded=0;html=1;labelBorderColor=none;labelBackgroundColor=none;fillColor=#FFFFCC;direction=west;movable=0;resizable=0;rotatable=0;deletable=0;editable=0;locked=1;connectable=0;" parent="1" vertex="1">
            <mxGeometry x="35" y="-296.25" width="180" height="20" as="geometry" />
          </mxCell>
        </UserObject>
        <UserObject label="comment.py" link="https://github.com/ROCmSoftwarePlatform/migraphx-benchmark-utils/blob/main/scripts/comment.py" linkTarget="_blank" id="gxmgwyy8D1BKnNXjqqN9-246">
          <mxCell style="rounded=0;html=1;labelBorderColor=none;labelBackgroundColor=none;fillColor=#FFFFCC;direction=west;movable=0;resizable=0;rotatable=0;deletable=0;editable=0;locked=1;connectable=0;" parent="1" vertex="1">
            <mxGeometry x="35" y="-266.25" width="180" height="20" as="geometry" />
          </mxCell>
        </UserObject>
        <UserObject label="compare.sh" link="https://github.com/ROCmSoftwarePlatform/migraphx-benchmark-utils/blob/main/scripts/compare.py" linkTarget="_blank" id="gxmgwyy8D1BKnNXjqqN9-247">
          <mxCell style="rounded=0;html=1;labelBorderColor=none;labelBackgroundColor=none;fillColor=#FFFFCC;direction=west;movable=0;resizable=0;rotatable=0;deletable=0;editable=0;locked=1;connectable=0;" parent="1" vertex="1">
            <mxGeometry x="35" y="-236.25" width="180" height="20" as="geometry" />
          </mxCell>
        </UserObject>
        <UserObject label="history.py" link="https://github.com/ROCmSoftwarePlatform/migraphx-benchmark-utils/blob/main/scripts/history.py" linkTarget="_blank" id="gxmgwyy8D1BKnNXjqqN9-248">
          <mxCell style="rounded=0;html=1;labelBorderColor=none;labelBackgroundColor=none;fillColor=#FFFFCC;direction=west;movable=0;resizable=0;rotatable=0;deletable=0;editable=0;locked=1;connectable=0;" parent="1" vertex="1">
            <mxGeometry x="35" y="-206.25" width="180" height="20" as="geometry" />
          </mxCell>
        </UserObject>
        <UserObject label="ort_benchmark.sh" link="https://github.com/ROCmSoftwarePlatform/migraphx-benchmark-utils/blob/main/scripts/ort_benchmark.sh" linkTarget="_blank" id="gxmgwyy8D1BKnNXjqqN9-249">
          <mxCell style="rounded=0;html=1;labelBorderColor=none;labelBackgroundColor=none;fillColor=#FFFFCC;direction=west;movable=0;resizable=0;rotatable=0;deletable=0;editable=0;locked=1;connectable=0;" parent="1" vertex="1">
            <mxGeometry x="35" y="-176.25" width="180" height="20" as="geometry" />
          </mxCell>
        </UserObject>
        <UserObject label="performance_tests.sh" link="https://github.com/ROCmSoftwarePlatform/migraphx-benchmark-utils/blob/main/scripts/performance_tests.sh" linkTarget="_blank" id="gxmgwyy8D1BKnNXjqqN9-250">
          <mxCell style="rounded=0;html=1;labelBorderColor=none;labelBackgroundColor=none;fillColor=#FFFFCC;direction=west;movable=0;resizable=0;rotatable=0;deletable=0;editable=0;locked=1;connectable=0;" parent="1" vertex="1">
            <mxGeometry x="35" y="-146.25" width="180" height="20" as="geometry" />
          </mxCell>
        </UserObject>
        <UserObject label="report.py" link="https://github.com/ROCmSoftwarePlatform/migraphx-benchmark-utils/blob/main/scripts/report.py" linkTarget="_blank" id="gxmgwyy8D1BKnNXjqqN9-252">
          <mxCell style="rounded=0;html=1;labelBorderColor=none;labelBackgroundColor=none;fillColor=#FFFFCC;direction=west;movable=0;resizable=0;rotatable=0;deletable=0;editable=0;locked=1;connectable=0;" parent="1" vertex="1">
            <mxGeometry x="35" y="-113.75" width="180" height="20" as="geometry" />
          </mxCell>
        </UserObject>
        <UserObject label="threshold.csv" link="https://github.com/ROCmSoftwarePlatform/migraphx-benchmark-utils/blob/main/scripts/threshold.csv" linkTarget="_blank" id="gxmgwyy8D1BKnNXjqqN9-255">
          <mxCell style="rounded=0;html=1;labelBorderColor=none;labelBackgroundColor=none;fillColor=#FFFFCC;direction=west;movable=0;resizable=0;rotatable=0;deletable=0;editable=0;locked=1;connectable=0;" parent="1" vertex="1">
            <mxGeometry x="35" y="-83.75" width="180" height="20" as="geometry" />
          </mxCell>
        </UserObject>
        <mxCell id="gxmgwyy8D1BKnNXjqqN9-256" value="" style="endArrow=classic;html=1;rounded=0;exitX=1;exitY=0.5;exitDx=0;exitDy=0;entryX=0;entryY=0.5;entryDx=0;entryDy=0;movable=0;resizable=0;rotatable=0;deletable=0;editable=0;locked=1;connectable=0;" parent="1" source="gxmgwyy8D1BKnNXjqqN9-209" target="gxmgwyy8D1BKnNXjqqN9-244" edge="1">
          <mxGeometry width="50" height="50" relative="1" as="geometry">
            <mxPoint x="-95" y="2.5" as="sourcePoint" />
            <mxPoint x="-35" y="332.5" as="targetPoint" />
          </mxGeometry>
        </mxCell>
        <mxCell id="gxmgwyy8D1BKnNXjqqN9-257" value="" style="endArrow=classic;html=1;rounded=0;exitX=1;exitY=0.5;exitDx=0;exitDy=0;entryX=0;entryY=0.5;entryDx=0;entryDy=0;movable=0;resizable=0;rotatable=0;deletable=0;editable=0;locked=1;connectable=0;" parent="1" source="gxmgwyy8D1BKnNXjqqN9-209" target="gxmgwyy8D1BKnNXjqqN9-245" edge="1">
          <mxGeometry width="50" height="50" relative="1" as="geometry">
            <mxPoint x="-105" y="217.5" as="sourcePoint" />
            <mxPoint x="-45" y="547.5" as="targetPoint" />
          </mxGeometry>
        </mxCell>
        <mxCell id="gxmgwyy8D1BKnNXjqqN9-258" value="" style="endArrow=classic;html=1;rounded=0;exitX=1;exitY=0.5;exitDx=0;exitDy=0;entryX=0;entryY=0.5;entryDx=0;entryDy=0;movable=0;resizable=0;rotatable=0;deletable=0;editable=0;locked=1;connectable=0;" parent="1" source="gxmgwyy8D1BKnNXjqqN9-209" target="gxmgwyy8D1BKnNXjqqN9-246" edge="1">
          <mxGeometry width="50" height="50" relative="1" as="geometry">
            <mxPoint x="-95" y="227.5" as="sourcePoint" />
            <mxPoint x="-35" y="557.5" as="targetPoint" />
          </mxGeometry>
        </mxCell>
        <mxCell id="gxmgwyy8D1BKnNXjqqN9-259" value="" style="endArrow=classic;html=1;rounded=0;exitX=1;exitY=0.5;exitDx=0;exitDy=0;entryX=0;entryY=0.5;entryDx=0;entryDy=0;movable=0;resizable=0;rotatable=0;deletable=0;editable=0;locked=1;connectable=0;" parent="1" source="gxmgwyy8D1BKnNXjqqN9-209" target="gxmgwyy8D1BKnNXjqqN9-247" edge="1">
          <mxGeometry width="50" height="50" relative="1" as="geometry">
            <mxPoint x="-85" y="237.5" as="sourcePoint" />
            <mxPoint x="-25" y="567.5" as="targetPoint" />
          </mxGeometry>
        </mxCell>
        <mxCell id="gxmgwyy8D1BKnNXjqqN9-260" value="" style="endArrow=classic;html=1;rounded=0;exitX=1;exitY=0.5;exitDx=0;exitDy=0;entryX=0;entryY=0.5;entryDx=0;entryDy=0;movable=0;resizable=0;rotatable=0;deletable=0;editable=0;locked=1;connectable=0;" parent="1" source="gxmgwyy8D1BKnNXjqqN9-209" target="gxmgwyy8D1BKnNXjqqN9-248" edge="1">
          <mxGeometry width="50" height="50" relative="1" as="geometry">
            <mxPoint x="-75" y="247.5" as="sourcePoint" />
            <mxPoint x="-15" y="577.5" as="targetPoint" />
          </mxGeometry>
        </mxCell>
        <mxCell id="gxmgwyy8D1BKnNXjqqN9-261" value="" style="endArrow=classic;html=1;rounded=0;exitX=1;exitY=0.5;exitDx=0;exitDy=0;entryX=0;entryY=0.5;entryDx=0;entryDy=0;movable=0;resizable=0;rotatable=0;deletable=0;editable=0;locked=1;connectable=0;" parent="1" source="gxmgwyy8D1BKnNXjqqN9-209" target="gxmgwyy8D1BKnNXjqqN9-249" edge="1">
          <mxGeometry width="50" height="50" relative="1" as="geometry">
            <mxPoint x="-65" y="257.5" as="sourcePoint" />
            <mxPoint x="-5" y="587.5" as="targetPoint" />
          </mxGeometry>
        </mxCell>
        <mxCell id="gxmgwyy8D1BKnNXjqqN9-262" value="" style="endArrow=classic;html=1;rounded=0;exitX=1;exitY=0.5;exitDx=0;exitDy=0;entryX=0;entryY=0.5;entryDx=0;entryDy=0;movable=0;resizable=0;rotatable=0;deletable=0;editable=0;locked=1;connectable=0;" parent="1" source="gxmgwyy8D1BKnNXjqqN9-209" target="gxmgwyy8D1BKnNXjqqN9-250" edge="1">
          <mxGeometry width="50" height="50" relative="1" as="geometry">
            <mxPoint x="-55" y="267.5" as="sourcePoint" />
            <mxPoint x="5" y="597.5" as="targetPoint" />
          </mxGeometry>
        </mxCell>
        <mxCell id="gxmgwyy8D1BKnNXjqqN9-264" value="" style="endArrow=classic;html=1;rounded=0;exitX=1;exitY=0.5;exitDx=0;exitDy=0;entryX=0;entryY=0.5;entryDx=0;entryDy=0;movable=0;resizable=0;rotatable=0;deletable=0;editable=0;locked=1;connectable=0;" parent="1" source="gxmgwyy8D1BKnNXjqqN9-209" target="gxmgwyy8D1BKnNXjqqN9-252" edge="1">
          <mxGeometry width="50" height="50" relative="1" as="geometry">
            <mxPoint x="-35" y="287.5" as="sourcePoint" />
            <mxPoint x="25" y="617.5" as="targetPoint" />
          </mxGeometry>
        </mxCell>
        <mxCell id="gxmgwyy8D1BKnNXjqqN9-267" value="" style="endArrow=classic;html=1;rounded=0;exitX=1;exitY=0.5;exitDx=0;exitDy=0;entryX=0;entryY=0.5;entryDx=0;entryDy=0;movable=0;resizable=0;rotatable=0;deletable=0;editable=0;locked=1;connectable=0;" parent="1" source="gxmgwyy8D1BKnNXjqqN9-209" target="gxmgwyy8D1BKnNXjqqN9-255" edge="1">
          <mxGeometry width="50" height="50" relative="1" as="geometry">
            <mxPoint x="-5" y="317.5" as="sourcePoint" />
            <mxPoint x="55" y="647.5" as="targetPoint" />
          </mxGeometry>
        </mxCell>
        <UserObject label="miopen-dbs" link="https://github.com/ROCmSoftwarePlatform/migraphx-benchmark-utils/tree/main/miopen-dbs" linkTarget="_blank" id="gxmgwyy8D1BKnNXjqqN9-268">
          <mxCell style="rounded=0;html=1;labelBorderColor=none;labelBackgroundColor=none;fillColor=#66CC00;movable=0;resizable=0;rotatable=0;deletable=0;editable=0;locked=1;connectable=0;direction=west;" parent="1" vertex="1">
            <mxGeometry x="350" y="-582.5" width="130" height="20" as="geometry" />
          </mxCell>
        </UserObject>
        <UserObject label="rocm5.1.old" link="https://github.com/ROCmSoftwarePlatform/migraphx-benchmark-utils/tree/main/miopen-dbs/rocm5.1.old" linkTarget="_blank" id="gxmgwyy8D1BKnNXjqqN9-269">
          <mxCell style="rounded=0;html=1;labelBorderColor=none;labelBackgroundColor=none;fillColor=#E6FFCC;direction=west;movable=0;resizable=0;rotatable=0;deletable=0;editable=0;locked=1;connectable=0;" parent="1" vertex="1">
            <mxGeometry x="95" y="-628.75" width="120" height="20" as="geometry" />
          </mxCell>
        </UserObject>
        <UserObject label="rocm5.1" link="https://github.com/ROCmSoftwarePlatform/migraphx-benchmark-utils/tree/main/miopen-dbs/rocm5.1" linkTarget="_blank" id="gxmgwyy8D1BKnNXjqqN9-270">
          <mxCell style="rounded=0;html=1;labelBorderColor=none;labelBackgroundColor=none;fillColor=#E6FFCC;direction=west;movable=0;resizable=0;rotatable=0;deletable=0;editable=0;locked=1;connectable=0;" parent="1" vertex="1">
            <mxGeometry x="95" y="-598.75" width="120" height="20" as="geometry" />
          </mxCell>
        </UserObject>
        <UserObject label="rocm5.2" link="https://github.com/ROCmSoftwarePlatform/migraphx-benchmark-utils/tree/main/miopen-dbs/rocm5.2" linkTarget="_blank" id="gxmgwyy8D1BKnNXjqqN9-271">
          <mxCell style="rounded=0;html=1;labelBorderColor=none;labelBackgroundColor=none;fillColor=#E6FFCC;direction=west;movable=0;resizable=0;rotatable=0;deletable=0;editable=0;locked=1;connectable=0;" parent="1" vertex="1">
            <mxGeometry x="95" y="-568.75" width="120" height="20" as="geometry" />
          </mxCell>
        </UserObject>
        <mxCell id="gxmgwyy8D1BKnNXjqqN9-273" value="" style="endArrow=classic;html=1;rounded=0;entryX=0;entryY=0.25;entryDx=0;entryDy=0;exitX=1;exitY=0.5;exitDx=0;exitDy=0;movable=0;resizable=0;rotatable=0;deletable=0;editable=0;locked=1;connectable=0;" parent="1" source="gxmgwyy8D1BKnNXjqqN9-268" target="gxmgwyy8D1BKnNXjqqN9-269" edge="1">
          <mxGeometry width="50" height="50" relative="1" as="geometry">
            <mxPoint x="355" y="-292.5" as="sourcePoint" />
            <mxPoint x="405" y="-342.5" as="targetPoint" />
          </mxGeometry>
        </mxCell>
        <mxCell id="gxmgwyy8D1BKnNXjqqN9-274" value="" style="endArrow=classic;html=1;rounded=0;entryX=0;entryY=0.5;entryDx=0;entryDy=0;exitX=1;exitY=0.5;exitDx=0;exitDy=0;movable=0;resizable=0;rotatable=0;deletable=0;editable=0;locked=1;connectable=0;" parent="1" source="gxmgwyy8D1BKnNXjqqN9-268" target="gxmgwyy8D1BKnNXjqqN9-270" edge="1">
          <mxGeometry width="50" height="50" relative="1" as="geometry">
            <mxPoint x="355" y="-292.5" as="sourcePoint" />
            <mxPoint x="395" y="-342.5" as="targetPoint" />
          </mxGeometry>
        </mxCell>
        <mxCell id="gxmgwyy8D1BKnNXjqqN9-276" value="" style="endArrow=classic;html=1;rounded=0;entryX=0;entryY=0.5;entryDx=0;entryDy=0;exitX=1;exitY=0.5;exitDx=0;exitDy=0;movable=0;resizable=0;rotatable=0;deletable=0;editable=0;locked=1;connectable=0;" parent="1" source="gxmgwyy8D1BKnNXjqqN9-268" target="gxmgwyy8D1BKnNXjqqN9-271" edge="1">
          <mxGeometry width="50" height="50" relative="1" as="geometry">
            <mxPoint x="335" y="-292.5" as="sourcePoint" />
            <mxPoint x="385" y="-317.5" as="targetPoint" />
          </mxGeometry>
        </mxCell>
        <UserObject label="rocm5.4.2" link="https://github.com/ROCmSoftwarePlatform/migraphx-benchmark-utils/tree/main/miopen-dbs/rocm5.4.2" linkTarget="_blank" id="gxmgwyy8D1BKnNXjqqN9-277">
          <mxCell style="rounded=0;html=1;labelBorderColor=none;labelBackgroundColor=none;fillColor=#E6FFCC;direction=west;movable=0;resizable=0;rotatable=0;deletable=0;editable=0;locked=1;connectable=0;" parent="1" vertex="1">
            <mxGeometry x="95" y="-538.75" width="120" height="20" as="geometry" />
          </mxCell>
        </UserObject>
        <mxCell id="gxmgwyy8D1BKnNXjqqN9-278" value="" style="endArrow=classic;html=1;rounded=0;entryX=0;entryY=0.5;entryDx=0;entryDy=0;exitX=1;exitY=0.5;exitDx=0;exitDy=0;movable=0;resizable=0;rotatable=0;deletable=0;editable=0;locked=1;connectable=0;" parent="1" source="gxmgwyy8D1BKnNXjqqN9-268" target="gxmgwyy8D1BKnNXjqqN9-277" edge="1">
          <mxGeometry width="50" height="50" relative="1" as="geometry">
            <mxPoint x="345" y="-317.5" as="sourcePoint" />
            <mxPoint x="465" y="-282.5" as="targetPoint" />
          </mxGeometry>
        </mxCell>
        <UserObject label="memory" link="https://github.com/ROCmSoftwarePlatform/migraphx-benchmark-utils/tree/main/tools/memory" linkTarget="_blank" id="gxmgwyy8D1BKnNXjqqN9-281">
          <mxCell style="rounded=0;html=1;labelBorderColor=none;labelBackgroundColor=none;fillColor=#E6E6E6;direction=west;movable=0;resizable=0;rotatable=0;deletable=0;editable=0;locked=1;connectable=0;" parent="1" vertex="1">
            <mxGeometry x="165" y="-38.75" width="50" height="20" as="geometry" />
          </mxCell>
        </UserObject>
        <UserObject label="migx" link="https://github.com/ROCmSoftwarePlatform/migraphx-benchmark-utils/tree/main/tools/migx" linkTarget="_blank" id="gxmgwyy8D1BKnNXjqqN9-282">
          <mxCell style="rounded=0;html=1;labelBorderColor=none;labelBackgroundColor=none;fillColor=#E6E6E6;direction=west;movable=0;resizable=0;rotatable=0;deletable=0;editable=0;locked=1;connectable=0;" parent="1" vertex="1">
            <mxGeometry x="165" y="-8.75" width="50" height="20" as="geometry" />
          </mxCell>
        </UserObject>
        <mxCell id="gxmgwyy8D1BKnNXjqqN9-283" value="" style="endArrow=classic;html=1;rounded=0;exitX=1;exitY=0.5;exitDx=0;exitDy=0;entryX=0;entryY=0.5;entryDx=0;entryDy=0;movable=0;resizable=0;rotatable=0;deletable=0;editable=0;locked=1;connectable=0;" parent="1" source="gxmgwyy8D1BKnNXjqqN9-231" target="gxmgwyy8D1BKnNXjqqN9-281" edge="1">
          <mxGeometry width="50" height="50" relative="1" as="geometry">
            <mxPoint x="-45" y="392.5" as="sourcePoint" />
            <mxPoint x="5" y="342.5" as="targetPoint" />
          </mxGeometry>
        </mxCell>
        <mxCell id="gxmgwyy8D1BKnNXjqqN9-284" value="" style="endArrow=classic;html=1;rounded=0;exitX=1;exitY=0.5;exitDx=0;exitDy=0;entryX=0;entryY=0.5;entryDx=0;entryDy=0;movable=0;resizable=0;rotatable=0;deletable=0;editable=0;locked=1;connectable=0;" parent="1" source="gxmgwyy8D1BKnNXjqqN9-231" target="gxmgwyy8D1BKnNXjqqN9-282" edge="1">
          <mxGeometry width="50" height="50" relative="1" as="geometry">
            <mxPoint x="245" y="362.5" as="sourcePoint" />
            <mxPoint x="295" y="312.5" as="targetPoint" />
          </mxGeometry>
        </mxCell>
        <mxCell id="gxmgwyy8D1BKnNXjqqN9-292" value="&lt;font style=&quot;font-size: 21px;&quot;&gt;FORK&lt;br style=&quot;font-size: 21px;&quot;&gt;&lt;/font&gt;" style="ellipse;whiteSpace=wrap;html=1;fontSize=21;fillColor=#FF66FF;movable=0;resizable=0;rotatable=0;deletable=0;editable=0;locked=1;connectable=0;" parent="1" vertex="1">
          <mxGeometry x="675" y="-655" width="110" height="40" as="geometry" />
        </mxCell>
        <UserObject label="dockerfiles" link="https://github.com/ROCmSoftwarePlatform/migraphx-benchmark-utils/tree/main/dockerfiles" linkTarget="_blank" id="gxmgwyy8D1BKnNXjqqN9-222">
          <mxCell style="rounded=0;labelBorderColor=none;labelBackgroundColor=none;fillColor=#007FFF;movable=0;resizable=0;rotatable=0;deletable=0;editable=0;locked=1;connectable=0;shadow=0;html=1;flipV=0;flipH=0;direction=west;" parent="1" vertex="1">
            <mxGeometry x="350" y="-712.5" width="130" height="20" as="geometry" />
          </mxCell>
        </UserObject>
        <UserObject label="patch" link="https://github.com/ROCmSoftwarePlatform/migraphx-benchmark-utils/tree/main/dockerfiles/patch" linkTarget="_blank" id="gxmgwyy8D1BKnNXjqqN9-223">
          <mxCell style="rounded=0;labelBorderColor=none;labelBackgroundColor=none;fillColor=#99CCFF;shadow=0;html=1;flipV=0;flipH=0;direction=west;movable=0;resizable=0;rotatable=0;deletable=0;editable=0;locked=1;connectable=0;" parent="1" vertex="1">
            <mxGeometry x="95" y="-753.75" width="120" height="20" as="geometry" />
          </mxCell>
        </UserObject>
        <UserObject label="Daily.Dockerfile" link="https://github.com/ROCmSoftwarePlatform/migraphx-benchmark-utils/blob/main/dockerfiles/Daily.Dockerfile" linkTarget="_blank" id="gxmgwyy8D1BKnNXjqqN9-224">
          <mxCell style="rounded=0;labelBorderColor=none;labelBackgroundColor=none;fillColor=#99CCFF;shadow=0;html=1;flipV=0;flipH=0;direction=west;movable=0;resizable=0;rotatable=0;deletable=0;editable=0;locked=1;connectable=0;" parent="1" vertex="1">
            <mxGeometry x="95" y="-723.75" width="120" height="20" as="geometry" />
          </mxCell>
        </UserObject>
        <UserObject label="Dockerfile" link="https://github.com/ROCmSoftwarePlatform/migraphx-benchmark-utils/blob/main/dockerfiles/Dockerfile" linkTarget="_blank" id="gxmgwyy8D1BKnNXjqqN9-225">
          <mxCell style="rounded=0;labelBorderColor=none;labelBackgroundColor=none;fillColor=#99CCFF;shadow=0;html=1;flipV=0;flipH=0;direction=west;movable=0;resizable=0;rotatable=0;deletable=0;editable=0;locked=1;connectable=0;" parent="1" vertex="1">
            <mxGeometry x="95" y="-693.75" width="120" height="20" as="geometry" />
          </mxCell>
        </UserObject>
        <UserObject label="Ort.Dockerfile" link="https://github.com/ROCmSoftwarePlatform/migraphx-benchmark-utils/blob/main/dockerfiles/Ort.Dockerfile" linkTarget="_blank" id="gxmgwyy8D1BKnNXjqqN9-226">
          <mxCell style="rounded=0;labelBorderColor=none;labelBackgroundColor=none;fillColor=#99CCFF;shadow=0;html=1;flipV=0;flipH=0;direction=west;movable=0;resizable=0;rotatable=0;deletable=0;editable=0;locked=1;connectable=0;" parent="1" vertex="1">
            <mxGeometry x="95" y="-663.75" width="120" height="20" as="geometry" />
          </mxCell>
        </UserObject>
        <mxCell id="gxmgwyy8D1BKnNXjqqN9-227" value="" style="endArrow=classic;rounded=0;entryX=0;entryY=0.25;entryDx=0;entryDy=0;exitX=1;exitY=0.5;exitDx=0;exitDy=0;shadow=0;html=1;movable=0;resizable=0;rotatable=0;deletable=0;editable=0;locked=1;connectable=0;" parent="1" source="gxmgwyy8D1BKnNXjqqN9-222" target="gxmgwyy8D1BKnNXjqqN9-223" edge="1">
          <mxGeometry width="50" height="50" relative="1" as="geometry">
            <mxPoint x="325" y="-622.5" as="sourcePoint" />
            <mxPoint x="275" y="-672.5" as="targetPoint" />
          </mxGeometry>
        </mxCell>
        <mxCell id="gxmgwyy8D1BKnNXjqqN9-228" value="" style="endArrow=classic;rounded=0;entryX=0;entryY=0.5;entryDx=0;entryDy=0;exitX=1;exitY=0.5;exitDx=0;exitDy=0;shadow=0;html=1;movable=0;resizable=0;rotatable=0;deletable=0;editable=0;locked=1;connectable=0;" parent="1" source="gxmgwyy8D1BKnNXjqqN9-222" target="gxmgwyy8D1BKnNXjqqN9-224" edge="1">
          <mxGeometry width="50" height="50" relative="1" as="geometry">
            <mxPoint x="325" y="-622.5" as="sourcePoint" />
            <mxPoint x="285" y="-672.5" as="targetPoint" />
          </mxGeometry>
        </mxCell>
        <mxCell id="gxmgwyy8D1BKnNXjqqN9-229" value="" style="endArrow=classic;rounded=0;entryX=0;entryY=0.5;entryDx=0;entryDy=0;exitX=1;exitY=0.5;exitDx=0;exitDy=0;shadow=0;html=1;movable=0;resizable=0;rotatable=0;deletable=0;editable=0;locked=1;connectable=0;" parent="1" source="gxmgwyy8D1BKnNXjqqN9-222" target="gxmgwyy8D1BKnNXjqqN9-226" edge="1">
          <mxGeometry width="50" height="50" relative="1" as="geometry">
            <mxPoint x="325" y="-622.5" as="sourcePoint" />
            <mxPoint x="295" y="-605" as="targetPoint" />
          </mxGeometry>
        </mxCell>
        <mxCell id="gxmgwyy8D1BKnNXjqqN9-230" value="" style="endArrow=classic;rounded=0;entryX=0;entryY=0.5;entryDx=0;entryDy=0;exitX=1;exitY=0.5;exitDx=0;exitDy=0;shadow=0;html=1;movable=0;resizable=0;rotatable=0;deletable=0;editable=0;locked=1;connectable=0;" parent="1" source="gxmgwyy8D1BKnNXjqqN9-222" target="gxmgwyy8D1BKnNXjqqN9-225" edge="1">
          <mxGeometry width="50" height="50" relative="1" as="geometry">
            <mxPoint x="345" y="-622.5" as="sourcePoint" />
            <mxPoint x="295" y="-647.5" as="targetPoint" />
          </mxGeometry>
        </mxCell>
        <mxCell id="gxmgwyy8D1BKnNXjqqN9-295" value="" style="endArrow=classic;html=1;rounded=0;exitX=0;exitY=0.5;exitDx=0;exitDy=0;entryX=0;entryY=0.5;entryDx=0;entryDy=0;movable=0;resizable=0;rotatable=0;deletable=0;editable=0;locked=1;connectable=0;" parent="1" source="gxmgwyy8D1BKnNXjqqN9-2" target="gxmgwyy8D1BKnNXjqqN9-268" edge="1">
          <mxGeometry width="50" height="50" relative="1" as="geometry">
            <mxPoint x="440" y="-610" as="sourcePoint" />
            <mxPoint x="240" y="-600" as="targetPoint" />
          </mxGeometry>
        </mxCell>
        <mxCell id="gxmgwyy8D1BKnNXjqqN9-296" value="" style="endArrow=classic;html=1;rounded=0;exitX=0;exitY=0.5;exitDx=0;exitDy=0;entryX=0;entryY=0.5;entryDx=0;entryDy=0;movable=0;resizable=0;rotatable=0;deletable=0;editable=0;locked=1;connectable=0;" parent="1" source="gxmgwyy8D1BKnNXjqqN9-2" target="gxmgwyy8D1BKnNXjqqN9-209" edge="1">
          <mxGeometry width="50" height="50" relative="1" as="geometry">
            <mxPoint x="460" y="-550" as="sourcePoint" />
            <mxPoint x="290" y="-410" as="targetPoint" />
          </mxGeometry>
        </mxCell>
        <mxCell id="gxmgwyy8D1BKnNXjqqN9-303" value="" style="endArrow=classic;html=1;rounded=0;entryX=0;entryY=0.5;entryDx=0;entryDy=0;exitX=0;exitY=0.5;exitDx=0;exitDy=0;movable=0;resizable=0;rotatable=0;deletable=0;editable=0;locked=1;connectable=0;" parent="1" source="gxmgwyy8D1BKnNXjqqN9-2" target="gxmgwyy8D1BKnNXjqqN9-231" edge="1">
          <mxGeometry width="50" height="50" relative="1" as="geometry">
            <mxPoint x="570" y="-240" as="sourcePoint" />
            <mxPoint x="425" y="-130" as="targetPoint" />
          </mxGeometry>
        </mxCell>
        <UserObject label="github action workflows" link="https://github.com/ROCmSoftwarePlatform/AMDMIGraphX/tree/develop/.github/workflows" linkTarget="_blank" id="gxmgwyy8D1BKnNXjqqN9-310">
          <mxCell style="rounded=0;html=1;labelBorderColor=none;labelBackgroundColor=none;fillColor=#FF9933;direction=west;movable=1;resizable=1;rotatable=1;deletable=1;editable=1;locked=0;connectable=1;" parent="1" vertex="1">
            <mxGeometry x="350" y="-1057.5" width="130" height="20" as="geometry" />
          </mxCell>
        </UserObject>
        <mxCell id="gxmgwyy8D1BKnNXjqqN9-316" value="" style="endArrow=classic;html=1;rounded=0;entryX=1;entryY=0.5;entryDx=0;entryDy=0;exitX=1;exitY=0.5;exitDx=0;exitDy=0;movable=1;resizable=1;rotatable=1;deletable=1;editable=1;locked=0;connectable=1;" parent="1" source="gxmgwyy8D1BKnNXjqqN9-310" target="gxmgwyy8D1BKnNXjqqN9-342" edge="1">
          <mxGeometry width="50" height="50" relative="1" as="geometry">
            <mxPoint x="170" y="-1095" as="sourcePoint" />
            <mxPoint x="340" y="-1015" as="targetPoint" />
          </mxGeometry>
        </mxCell>
        <mxCell id="gxmgwyy8D1BKnNXjqqN9-317" value="" style="endArrow=classic;html=1;rounded=0;exitX=1;exitY=0.5;exitDx=0;exitDy=0;entryX=1;entryY=0.5;entryDx=0;entryDy=0;movable=1;resizable=1;rotatable=1;deletable=1;editable=1;locked=0;connectable=1;" parent="1" source="gxmgwyy8D1BKnNXjqqN9-310" target="gxmgwyy8D1BKnNXjqqN9-338" edge="1">
          <mxGeometry width="50" height="50" relative="1" as="geometry">
            <mxPoint x="170" y="-1095" as="sourcePoint" />
            <mxPoint x="340" y="-1135" as="targetPoint" />
          </mxGeometry>
        </mxCell>
        <mxCell id="gxmgwyy8D1BKnNXjqqN9-318" value="" style="endArrow=classic;html=1;rounded=0;entryX=1;entryY=0.5;entryDx=0;entryDy=0;exitX=1;exitY=0.5;exitDx=0;exitDy=0;movable=1;resizable=1;rotatable=1;deletable=1;editable=1;locked=0;connectable=1;" parent="1" source="gxmgwyy8D1BKnNXjqqN9-310" target="gxmgwyy8D1BKnNXjqqN9-340" edge="1">
          <mxGeometry width="50" height="50" relative="1" as="geometry">
            <mxPoint x="380" y="-1100" as="sourcePoint" />
            <mxPoint x="340" y="-1075" as="targetPoint" />
          </mxGeometry>
        </mxCell>
        <mxCell id="gxmgwyy8D1BKnNXjqqN9-319" value="" style="endArrow=classic;html=1;rounded=0;entryX=1;entryY=0.5;entryDx=0;entryDy=0;exitX=1;exitY=0.5;exitDx=0;exitDy=0;movable=1;resizable=1;rotatable=1;deletable=1;editable=1;locked=0;connectable=1;" parent="1" source="gxmgwyy8D1BKnNXjqqN9-310" target="gxmgwyy8D1BKnNXjqqN9-341" edge="1">
          <mxGeometry width="50" height="50" relative="1" as="geometry">
            <mxPoint x="380" y="-1100" as="sourcePoint" />
            <mxPoint x="340" y="-1045" as="targetPoint" />
            <Array as="points" />
          </mxGeometry>
        </mxCell>
        <mxCell id="gxmgwyy8D1BKnNXjqqN9-320" value="" style="endArrow=classic;html=1;rounded=0;entryX=1;entryY=0.5;entryDx=0;entryDy=0;exitX=1;exitY=0.5;exitDx=0;exitDy=0;movable=1;resizable=1;rotatable=1;deletable=1;editable=1;locked=0;connectable=1;" parent="1" source="gxmgwyy8D1BKnNXjqqN9-310" target="gxmgwyy8D1BKnNXjqqN9-339" edge="1">
          <mxGeometry width="50" height="50" relative="1" as="geometry">
            <mxPoint x="170" y="-1095" as="sourcePoint" />
            <mxPoint x="340" y="-1105" as="targetPoint" />
          </mxGeometry>
        </mxCell>
        <UserObject label="github action workflows" link="https://github.com/migraphx-benchmark/AMDMIGraphX/tree/develop/.github/workflows" linkTarget="_blank" id="gxmgwyy8D1BKnNXjqqN9-321">
          <mxCell style="rounded=0;html=1;labelBorderColor=none;labelBackgroundColor=none;fillColor=#FF9933;movable=0;resizable=0;rotatable=0;deletable=0;editable=0;locked=1;connectable=0;" parent="1" vertex="1">
            <mxGeometry x="1275" y="-1057.5" width="130" height="20" as="geometry" />
          </mxCell>
        </UserObject>
        <UserObject label="benchmark.yaml" link="https://github.com/migraphx-benchmark/AMDMIGraphX/blob/develop/.github/workflows/benchmark.yaml" linkTarget="_blank" id="gxmgwyy8D1BKnNXjqqN9-323">
          <mxCell style="rounded=0;html=1;labelBorderColor=none;labelBackgroundColor=none;fillColor=#FFB366;movable=0;resizable=0;rotatable=0;deletable=0;editable=0;locked=1;connectable=0;" parent="1" vertex="1">
            <mxGeometry x="1540" y="-1170" width="200" height="20" as="geometry" />
          </mxCell>
        </UserObject>
        <UserObject label="history.yaml" link="https://github.com/migraphx-benchmark/AMDMIGraphX/blob/develop/.github/workflows/history.yaml" linkTarget="_blank" id="gxmgwyy8D1BKnNXjqqN9-324">
          <mxCell style="rounded=0;html=1;labelBorderColor=none;labelBackgroundColor=none;fillColor=#FFB366;movable=0;resizable=0;rotatable=0;deletable=0;editable=0;locked=1;connectable=0;" parent="1" vertex="1">
            <mxGeometry x="1540" y="-1140" width="200" height="20" as="geometry" />
          </mxCell>
        </UserObject>
        <UserObject label="history_HTEC.yaml" link="https://github.com/migraphx-benchmark/AMDMIGraphX/blob/develop/.github/workflows/history_HTEC.yaml" linkTarget="_blank" id="gxmgwyy8D1BKnNXjqqN9-325">
          <mxCell style="rounded=0;html=1;labelBorderColor=none;labelBackgroundColor=none;fillColor=#FFB366;movable=0;resizable=0;rotatable=0;deletable=0;editable=0;locked=1;connectable=0;" parent="1" vertex="1">
            <mxGeometry x="1540" y="-1110" width="200" height="20" as="geometry" />
          </mxCell>
        </UserObject>
        <UserObject label="performance.yaml" link="https://github.com/migraphx-benchmark/AMDMIGraphX/blob/develop/.github/workflows/performance.yaml" linkTarget="_blank" id="gxmgwyy8D1BKnNXjqqN9-326">
          <mxCell style="rounded=0;html=1;labelBorderColor=none;labelBackgroundColor=none;fillColor=#FFB366;movable=0;resizable=0;rotatable=0;deletable=0;editable=0;locked=1;connectable=0;" parent="1" vertex="1">
            <mxGeometry x="1540" y="-1050" width="200" height="20" as="geometry" />
          </mxCell>
        </UserObject>
        <mxCell id="gxmgwyy8D1BKnNXjqqN9-329" value="" style="endArrow=classic;html=1;rounded=0;entryX=0;entryY=0.5;entryDx=0;entryDy=0;exitX=1;exitY=0.5;exitDx=0;exitDy=0;movable=0;resizable=0;rotatable=0;deletable=0;editable=0;locked=1;connectable=0;" parent="1" source="gxmgwyy8D1BKnNXjqqN9-321" target="gxmgwyy8D1BKnNXjqqN9-354" edge="1">
          <mxGeometry width="50" height="50" relative="1" as="geometry">
            <mxPoint x="1700" y="-982.5" as="sourcePoint" />
            <mxPoint x="1610" y="-775" as="targetPoint" />
          </mxGeometry>
        </mxCell>
        <mxCell id="gxmgwyy8D1BKnNXjqqN9-330" value="" style="endArrow=classic;html=1;rounded=0;entryX=0;entryY=0.5;entryDx=0;entryDy=0;exitX=1;exitY=0.5;exitDx=0;exitDy=0;movable=0;resizable=0;rotatable=0;deletable=0;editable=0;locked=1;connectable=0;" parent="1" source="gxmgwyy8D1BKnNXjqqN9-321" target="gxmgwyy8D1BKnNXjqqN9-323" edge="1">
          <mxGeometry width="50" height="50" relative="1" as="geometry">
            <mxPoint x="1700" y="-982.5" as="sourcePoint" />
            <mxPoint x="1750" y="-1022.5" as="targetPoint" />
          </mxGeometry>
        </mxCell>
        <mxCell id="gxmgwyy8D1BKnNXjqqN9-331" value="" style="endArrow=classic;html=1;rounded=0;entryX=0;entryY=0.5;entryDx=0;entryDy=0;exitX=1;exitY=0.5;exitDx=0;exitDy=0;movable=0;resizable=0;rotatable=0;deletable=0;editable=0;locked=1;connectable=0;" parent="1" source="gxmgwyy8D1BKnNXjqqN9-321" target="gxmgwyy8D1BKnNXjqqN9-325" edge="1">
          <mxGeometry width="50" height="50" relative="1" as="geometry">
            <mxPoint x="1700" y="-982.5" as="sourcePoint" />
            <mxPoint x="1740" y="-955" as="targetPoint" />
          </mxGeometry>
        </mxCell>
        <mxCell id="gxmgwyy8D1BKnNXjqqN9-332" value="" style="endArrow=classic;html=1;rounded=0;entryX=0;entryY=0.5;entryDx=0;entryDy=0;exitX=1;exitY=0.5;exitDx=0;exitDy=0;movable=0;resizable=0;rotatable=0;deletable=0;editable=0;locked=1;connectable=0;" parent="1" source="gxmgwyy8D1BKnNXjqqN9-321" target="gxmgwyy8D1BKnNXjqqN9-326" edge="1">
          <mxGeometry width="50" height="50" relative="1" as="geometry">
            <mxPoint x="1700" y="-982.5" as="sourcePoint" />
            <mxPoint x="1735" y="-947.5" as="targetPoint" />
            <Array as="points" />
          </mxGeometry>
        </mxCell>
        <mxCell id="gxmgwyy8D1BKnNXjqqN9-333" value="" style="endArrow=classic;html=1;rounded=0;entryX=0;entryY=0.5;entryDx=0;entryDy=0;exitX=1;exitY=0.5;exitDx=0;exitDy=0;movable=0;resizable=0;rotatable=0;deletable=0;editable=0;locked=1;connectable=0;" parent="1" source="gxmgwyy8D1BKnNXjqqN9-321" target="gxmgwyy8D1BKnNXjqqN9-324" edge="1">
          <mxGeometry width="50" height="50" relative="1" as="geometry">
            <mxPoint x="1700" y="-982.5" as="sourcePoint" />
            <mxPoint x="1740" y="-997.5" as="targetPoint" />
          </mxGeometry>
        </mxCell>
        <UserObject label="rocm-image-release.yaml" link="https://github.com/migraphx-benchmark/AMDMIGraphX/blob/develop/.github/workflows/rocm-image-release.yaml" linkTarget="_blank" id="gxmgwyy8D1BKnNXjqqN9-334">
          <mxCell style="rounded=0;html=1;labelBorderColor=none;labelBackgroundColor=none;fillColor=#FFB366;movable=0;resizable=0;rotatable=0;deletable=0;editable=0;locked=1;connectable=0;" parent="1" vertex="1">
            <mxGeometry x="1540" y="-990" width="200" height="20" as="geometry" />
          </mxCell>
        </UserObject>
        <mxCell id="gxmgwyy8D1BKnNXjqqN9-335" value="" style="endArrow=classic;html=1;rounded=0;exitX=1;exitY=0.5;exitDx=0;exitDy=0;entryX=0;entryY=0.5;entryDx=0;entryDy=0;movable=0;resizable=0;rotatable=0;deletable=0;editable=0;locked=1;connectable=0;" parent="1" source="gxmgwyy8D1BKnNXjqqN9-321" target="gxmgwyy8D1BKnNXjqqN9-334" edge="1">
          <mxGeometry width="50" height="50" relative="1" as="geometry">
            <mxPoint x="1700" y="-982.5" as="sourcePoint" />
            <mxPoint x="1850" y="-722.5" as="targetPoint" />
          </mxGeometry>
        </mxCell>
        <UserObject label="add-to-project.yaml" link="https://github.com/ROCmSoftwarePlatform/AMDMIGraphX/blob/develop/.github/workflows/add-to-project.yaml" linkTarget="_blank" id="gxmgwyy8D1BKnNXjqqN9-338">
          <mxCell style="rounded=0;html=1;labelBorderColor=none;labelBackgroundColor=none;fillColor=#FFB366;movable=1;resizable=1;rotatable=1;deletable=1;editable=1;locked=0;connectable=1;" parent="1" vertex="1">
            <mxGeometry x="50" y="-1180" width="165" height="20" as="geometry" />
          </mxCell>
        </UserObject>
        <UserObject label="benchmark.yaml" link="https://github.com/ROCmSoftwarePlatform/AMDMIGraphX/blob/develop/.github/workflows/benchmark.yaml" linkTarget="_blank" id="gxmgwyy8D1BKnNXjqqN9-339">
          <mxCell style="rounded=0;html=1;labelBorderColor=none;labelBackgroundColor=none;fillColor=#FFB366;movable=1;resizable=1;rotatable=1;deletable=1;editable=1;locked=0;connectable=1;" parent="1" vertex="1">
            <mxGeometry x="50" y="-1150" width="165" height="20" as="geometry" />
          </mxCell>
        </UserObject>
        <UserObject label="ci.yaml" link="https://github.com/ROCmSoftwarePlatform/AMDMIGraphX/blob/develop/.github/workflows/ci.yaml" linkTarget="_blank" id="gxmgwyy8D1BKnNXjqqN9-340">
          <mxCell style="rounded=0;html=1;labelBorderColor=none;labelBackgroundColor=none;fillColor=#FFB366;movable=1;resizable=1;rotatable=1;deletable=1;editable=1;locked=0;connectable=1;" parent="1" vertex="1">
            <mxGeometry x="50" y="-1120" width="165" height="20" as="geometry" />
          </mxCell>
        </UserObject>
        <UserObject label="history.yaml" link="https://github.com/ROCmSoftwarePlatform/AMDMIGraphX/blob/develop/.github/workflows/history.yaml" linkTarget="_blank" id="gxmgwyy8D1BKnNXjqqN9-341">
          <mxCell style="rounded=0;html=1;labelBorderColor=none;labelBackgroundColor=none;fillColor=#FFB366;movable=1;resizable=1;rotatable=1;deletable=1;editable=1;locked=0;connectable=1;" parent="1" vertex="1">
            <mxGeometry x="50" y="-1058.75" width="165" height="20" as="geometry" />
          </mxCell>
        </UserObject>
        <UserObject label="performance.yaml" link="https://github.com/ROCmSoftwarePlatform/AMDMIGraphX/blob/develop/.github/workflows/performance.yaml" linkTarget="_blank" id="gxmgwyy8D1BKnNXjqqN9-342">
          <mxCell style="rounded=0;html=1;labelBorderColor=none;labelBackgroundColor=none;fillColor=#FFB366;movable=1;resizable=1;rotatable=1;deletable=1;editable=1;locked=0;connectable=1;" parent="1" vertex="1">
            <mxGeometry x="50" y="-1028.75" width="165" height="20" as="geometry" />
          </mxCell>
        </UserObject>
        <UserObject label="sync-onnxrt-main.yaml" link="https://github.com/ROCmSoftwarePlatform/AMDMIGraphX/blob/develop/.github/workflows/sync-onnxrt-main.yaml" linkTarget="_blank" id="gxmgwyy8D1BKnNXjqqN9-343">
          <mxCell style="rounded=0;html=1;labelBorderColor=none;labelBackgroundColor=none;fillColor=#FFB366;movable=1;resizable=1;rotatable=1;deletable=1;editable=1;locked=0;connectable=1;" parent="1" vertex="1">
            <mxGeometry x="50" y="-963.75" width="165" height="20" as="geometry" />
          </mxCell>
        </UserObject>
        <UserObject label="rocm-image-release.yaml" link="https://github.com/ROCmSoftwarePlatform/AMDMIGraphX/blob/develop/.github/workflows/rocm-image-release.yaml" linkTarget="_blank" id="gxmgwyy8D1BKnNXjqqN9-344">
          <mxCell style="rounded=0;html=1;labelBorderColor=none;labelBackgroundColor=none;fillColor=#FFB366;movable=1;resizable=1;rotatable=1;deletable=1;editable=1;locked=0;connectable=1;" parent="1" vertex="1">
            <mxGeometry x="50" y="-998.75" width="165" height="20" as="geometry" />
          </mxCell>
        </UserObject>
        <mxCell id="gxmgwyy8D1BKnNXjqqN9-346" value="" style="endArrow=classic;html=1;rounded=0;entryX=1;entryY=0.5;entryDx=0;entryDy=0;exitX=1;exitY=0.5;exitDx=0;exitDy=0;movable=1;resizable=1;rotatable=1;deletable=1;editable=1;locked=0;connectable=1;" parent="1" source="gxmgwyy8D1BKnNXjqqN9-310" target="gxmgwyy8D1BKnNXjqqN9-344" edge="1">
          <mxGeometry width="50" height="50" relative="1" as="geometry">
            <mxPoint x="405" y="-1065" as="sourcePoint" />
            <mxPoint x="340" y="-1005" as="targetPoint" />
          </mxGeometry>
        </mxCell>
        <mxCell id="gxmgwyy8D1BKnNXjqqN9-347" value="" style="endArrow=classic;html=1;rounded=0;entryX=1;entryY=0.5;entryDx=0;entryDy=0;exitX=1;exitY=0.5;exitDx=0;exitDy=0;movable=1;resizable=1;rotatable=1;deletable=1;editable=1;locked=0;connectable=1;" parent="1" source="gxmgwyy8D1BKnNXjqqN9-310" target="gxmgwyy8D1BKnNXjqqN9-343" edge="1">
          <mxGeometry width="50" height="50" relative="1" as="geometry">
            <mxPoint x="415" y="-1055" as="sourcePoint" />
            <mxPoint x="350" y="-995" as="targetPoint" />
          </mxGeometry>
        </mxCell>
        <UserObject label="miopen_database.yaml" link="https://github.com/migraphx-benchmark/AMDMIGraphX/blob/develop/.github/workflows/miopen_database.yaml" linkTarget="_blank" id="gxmgwyy8D1BKnNXjqqN9-350">
          <mxCell style="rounded=0;html=1;labelBorderColor=none;labelBackgroundColor=none;fillColor=#FFB366;movable=0;resizable=0;rotatable=0;deletable=0;editable=0;locked=1;connectable=0;" parent="1" vertex="1">
            <mxGeometry x="1540" y="-1080" width="200" height="20" as="geometry" />
          </mxCell>
        </UserObject>
        <mxCell id="gxmgwyy8D1BKnNXjqqN9-351" value="" style="endArrow=classic;html=1;rounded=0;entryX=0;entryY=0.5;entryDx=0;entryDy=0;exitX=1;exitY=0.5;exitDx=0;exitDy=0;movable=0;resizable=0;rotatable=0;deletable=0;editable=0;locked=1;connectable=0;" parent="1" source="gxmgwyy8D1BKnNXjqqN9-321" target="gxmgwyy8D1BKnNXjqqN9-350" edge="1">
          <mxGeometry width="50" height="50" relative="1" as="geometry">
            <mxPoint x="1460" y="-980" as="sourcePoint" />
            <mxPoint x="1620" y="-990" as="targetPoint" />
          </mxGeometry>
        </mxCell>
        <UserObject label="performance_HTEC.yaml" link="https://github.com/migraphx-benchmark/AMDMIGraphX/blob/develop/.github/workflows/performance_HTEC.yaml" linkTarget="_blank" id="gxmgwyy8D1BKnNXjqqN9-352">
          <mxCell style="rounded=0;html=1;labelBorderColor=none;labelBackgroundColor=none;fillColor=#FFB366;movable=0;resizable=0;rotatable=0;deletable=0;editable=0;locked=1;connectable=0;" parent="1" vertex="1">
            <mxGeometry x="1540" y="-1020" width="200" height="20" as="geometry" />
          </mxCell>
        </UserObject>
        <mxCell id="gxmgwyy8D1BKnNXjqqN9-353" value="" style="endArrow=classic;html=1;rounded=0;entryX=0;entryY=0.5;entryDx=0;entryDy=0;exitX=1;exitY=0.5;exitDx=0;exitDy=0;movable=0;resizable=0;rotatable=0;deletable=0;editable=0;locked=1;connectable=0;" parent="1" source="gxmgwyy8D1BKnNXjqqN9-321" target="gxmgwyy8D1BKnNXjqqN9-352" edge="1">
          <mxGeometry width="50" height="50" relative="1" as="geometry">
            <mxPoint x="1460" y="-980" as="sourcePoint" />
            <mxPoint x="1620" y="-930" as="targetPoint" />
            <Array as="points" />
          </mxGeometry>
        </mxCell>
        <UserObject label="rocm-image-release_HTEC.yaml" link="https://github.com/migraphx-benchmark/AMDMIGraphX/blob/develop/.github/workflows/rocm-image-release_HTEC.yaml" linkTarget="_blank" id="gxmgwyy8D1BKnNXjqqN9-354">
          <mxCell style="rounded=0;html=1;labelBorderColor=none;labelBackgroundColor=none;fillColor=#FFB366;movable=0;resizable=0;rotatable=0;deletable=0;editable=0;locked=1;connectable=0;" parent="1" vertex="1">
            <mxGeometry x="1540" y="-960" width="200" height="20" as="geometry" />
          </mxCell>
        </UserObject>
        <mxCell id="gxmgwyy8D1BKnNXjqqN9-362" value="" style="endArrow=classic;html=1;rounded=0;exitX=1;exitY=0.5;exitDx=0;exitDy=0;entryX=0;entryY=0.5;entryDx=0;entryDy=0;movable=0;resizable=0;rotatable=0;deletable=0;editable=0;locked=1;connectable=0;" parent="1" source="xwbP8etTTOFJ-Utlb-hV-6" target="gxmgwyy8D1BKnNXjqqN9-321" edge="1">
          <mxGeometry width="50" height="50" relative="1" as="geometry">
            <mxPoint x="1220" y="-900" as="sourcePoint" />
            <mxPoint x="1280" y="-840" as="targetPoint" />
          </mxGeometry>
        </mxCell>
        <mxCell id="gxmgwyy8D1BKnNXjqqN9-363" value="" style="endArrow=classic;html=1;rounded=0;exitX=0;exitY=0.5;exitDx=0;exitDy=0;entryX=0;entryY=0.5;entryDx=0;entryDy=0;movable=0;resizable=0;rotatable=0;deletable=0;editable=0;locked=1;connectable=0;" parent="1" source="xwbP8etTTOFJ-Utlb-hV-17" target="gxmgwyy8D1BKnNXjqqN9-310" edge="1">
          <mxGeometry width="50" height="50" relative="1" as="geometry">
            <mxPoint x="1060" y="-840" as="sourcePoint" />
            <mxPoint x="1110" y="-890" as="targetPoint" />
          </mxGeometry>
        </mxCell>
        <mxCell id="gxmgwyy8D1BKnNXjqqN9-366" value="" style="endArrow=classic;html=1;rounded=0;exitX=0;exitY=0.5;exitDx=0;exitDy=0;entryX=1;entryY=0.5;entryDx=0;entryDy=0;strokeWidth=3;movable=0;resizable=0;rotatable=0;deletable=0;editable=0;locked=1;connectable=0;" parent="1" source="gxmgwyy8D1BKnNXjqqN9-143" target="xwbP8etTTOFJ-Utlb-hV-17" edge="1">
          <mxGeometry width="50" height="50" relative="1" as="geometry">
            <mxPoint x="880" y="-900" as="sourcePoint" />
            <mxPoint x="870" y="-800" as="targetPoint" />
          </mxGeometry>
        </mxCell>
        <mxCell id="gxmgwyy8D1BKnNXjqqN9-367" value="" style="verticalLabelPosition=bottom;verticalAlign=top;html=1;shape=mxgraph.basic.x;fillColor=#FF0000;movable=0;resizable=0;rotatable=0;deletable=0;editable=0;locked=1;connectable=0;" parent="1" vertex="1">
          <mxGeometry x="410" y="-723.75" width="10" height="10" as="geometry" />
        </mxCell>
        <mxCell id="gxmgwyy8D1BKnNXjqqN9-368" value="" style="verticalLabelPosition=bottom;verticalAlign=top;html=1;shape=mxgraph.basic.x;fillColor=#FF0000;movable=0;resizable=0;rotatable=0;deletable=0;editable=0;locked=1;connectable=0;" parent="1" vertex="1">
          <mxGeometry x="410" y="-593.75" width="10" height="10" as="geometry" />
        </mxCell>
        <mxCell id="gxmgwyy8D1BKnNXjqqN9-369" value="" style="verticalLabelPosition=bottom;verticalAlign=top;html=1;shape=mxgraph.basic.x;fillColor=#FF0000;movable=0;resizable=0;rotatable=0;deletable=0;editable=0;locked=1;connectable=0;" parent="1" vertex="1">
          <mxGeometry x="410" y="-306.25" width="10" height="10" as="geometry" />
        </mxCell>
        <mxCell id="gxmgwyy8D1BKnNXjqqN9-370" value="" style="verticalLabelPosition=bottom;verticalAlign=top;html=1;shape=mxgraph.basic.x;fillColor=#FF0000;movable=0;resizable=0;rotatable=0;deletable=0;editable=0;locked=1;connectable=0;" parent="1" vertex="1">
          <mxGeometry x="450" y="-38.75" width="10" height="10" as="geometry" />
        </mxCell>
        <mxCell id="DQUAqVSNPgO8_BaYZD6j-1" value="" style="verticalLabelPosition=bottom;verticalAlign=top;html=1;shape=mxgraph.basic.tick;fillColor=#00FF00;movable=0;resizable=0;rotatable=0;deletable=0;editable=0;locked=1;connectable=0;" parent="1" vertex="1">
          <mxGeometry x="1012.5" y="-900" width="15" height="20" as="geometry" />
        </mxCell>
        <mxCell id="DQUAqVSNPgO8_BaYZD6j-2" value="" style="verticalLabelPosition=bottom;verticalAlign=top;html=1;shape=mxgraph.basic.tick;fillColor=#00FF00;movable=0;resizable=0;rotatable=0;deletable=0;editable=0;locked=1;connectable=0;" parent="1" vertex="1">
          <mxGeometry x="1012.5" y="-820" width="15" height="20" as="geometry" />
        </mxCell>
        <mxCell id="DQUAqVSNPgO8_BaYZD6j-3" value="" style="verticalLabelPosition=bottom;verticalAlign=top;html=1;shape=mxgraph.basic.tick;fillColor=#00FF00;movable=0;resizable=0;rotatable=0;deletable=0;editable=0;locked=1;connectable=0;" parent="1" vertex="1">
          <mxGeometry x="1330" y="-1078.75" width="15" height="20" as="geometry" />
        </mxCell>
        <mxCell id="DQUAqVSNPgO8_BaYZD6j-4" value="" style="verticalLabelPosition=bottom;verticalAlign=top;html=1;shape=mxgraph.basic.tick;fillColor=#00FF00;movable=0;resizable=0;rotatable=0;deletable=0;editable=0;locked=1;connectable=0;" parent="1" vertex="1">
          <mxGeometry x="1332.5" y="-756.25" width="15" height="20" as="geometry" />
        </mxCell>
        <mxCell id="DQUAqVSNPgO8_BaYZD6j-5" value="" style="verticalLabelPosition=bottom;verticalAlign=top;html=1;shape=mxgraph.basic.tick;fillColor=#00FF00;movable=0;resizable=0;rotatable=0;deletable=0;editable=0;locked=1;connectable=0;" parent="1" vertex="1">
          <mxGeometry x="1332.5" y="-145" width="15" height="20" as="geometry" />
        </mxCell>
        <mxCell id="DQUAqVSNPgO8_BaYZD6j-6" value="" style="verticalLabelPosition=bottom;verticalAlign=top;html=1;shape=mxgraph.basic.tick;fillColor=#00FF00;movable=0;resizable=0;rotatable=0;deletable=0;editable=0;locked=1;connectable=0;" parent="1" vertex="1">
          <mxGeometry x="1332.5" y="-483.75" width="15" height="20" as="geometry" />
        </mxCell>
        <mxCell id="DQUAqVSNPgO8_BaYZD6j-7" value="" style="verticalLabelPosition=bottom;verticalAlign=top;html=1;shape=mxgraph.basic.tick;fillColor=#00FF00;movable=0;resizable=0;rotatable=0;deletable=0;editable=0;locked=1;connectable=0;" parent="1" vertex="1">
          <mxGeometry x="1332.5" y="-656.25" width="15" height="20" as="geometry" />
        </mxCell>
        <mxCell id="DQUAqVSNPgO8_BaYZD6j-8" value="" style="verticalLabelPosition=bottom;verticalAlign=top;html=1;shape=mxgraph.basic.tick;fillColor=#00FF00;movable=0;resizable=0;rotatable=0;deletable=0;editable=0;locked=1;connectable=0;" parent="1" vertex="1">
          <mxGeometry x="1292.5" y="200" width="15" height="20" as="geometry" />
        </mxCell>
        <UserObject label="benchmarks.yml" link="https://github.com/ROCmSoftwarePlatform/migraphx-benchmark/blob/main/.github/workflows/benchmarks.yml" linkTarget="_blank" id="b3cS9iTIGew-__wi94bO-1">
          <mxCell style="rounded=0;html=1;labelBorderColor=none;labelBackgroundColor=none;fillColor=#ffb366;direction=west;movable=0;resizable=0;rotatable=0;deletable=0;editable=0;locked=1;connectable=0;" parent="1" vertex="1">
            <mxGeometry x="95" y="-918.75" width="120" height="20" as="geometry" />
          </mxCell>
        </UserObject>
        <UserObject label="migraphx-reports" link="https://github.com/migraphx-benchmark/migraphx-reports" linkTarget="_blank" id="b3cS9iTIGew-__wi94bO-2">
          <mxCell style="rounded=0;html=1;labelBorderColor=none;labelBackgroundColor=#00FFFF;fillColor=#00FFFF;movable=0;resizable=0;rotatable=0;deletable=0;editable=0;locked=1;connectable=0;" parent="1" vertex="1">
            <mxGeometry x="960" y="-451.25" width="120" height="60" as="geometry" />
          </mxCell>
        </UserObject>
        <mxCell id="b3cS9iTIGew-__wi94bO-3" value="" style="verticalLabelPosition=bottom;verticalAlign=top;html=1;shape=mxgraph.basic.x;fillColor=#FF0000;movable=0;resizable=0;rotatable=0;deletable=0;editable=0;locked=1;connectable=0;" parent="1" vertex="1">
          <mxGeometry x="1015" y="-462.5" width="10" height="10" as="geometry" />
        </mxCell>
        <mxCell id="YqzQr_zoLB6FGgrg5dCg-1" value="" style="verticalLabelPosition=bottom;verticalAlign=top;html=1;shape=mxgraph.basic.tick;fillColor=#00FF00;movable=0;resizable=0;rotatable=0;deletable=0;editable=0;locked=1;connectable=0;" parent="1" vertex="1">
          <mxGeometry x="1332.5" y="-865" width="15" height="20" as="geometry" />
        </mxCell>
        <UserObject label="clean-closed-pr-caches.yaml" link="https://github.com/ROCmSoftwarePlatform/AMDMIGraphX/blob/develop/.github/workflows/ci.yaml" linkTarget="_blank" id="WUPdK6KXccvWbHXXTMWr-1">
          <mxCell style="rounded=0;html=1;labelBorderColor=none;labelBackgroundColor=none;fillColor=#FFB366;movable=1;resizable=1;rotatable=1;deletable=1;editable=1;locked=0;connectable=1;" parent="1" vertex="1">
            <mxGeometry x="50" y="-1090" width="165" height="20" as="geometry" />
          </mxCell>
        </UserObject>
      </root>
    </mxGraphModel>
  </diagram>
</mxfile>
